<?xml version="1.0" encoding="UTF-8"?>
<svg id="Layer_1" data-name="Layer 1" xmlns="http://www.w3.org/2000/svg" viewBox="0 0 438.59 130.2">
  <defs>
    <style>
      .cls-1 {
        fill: #5c348b;
      }

      .cls-1, .cls-2 {
        stroke-width: 0px;
      }

      .cls-2 {
        fill: #12335c;
      }
    </style>
  </defs>
  <g>
    <path class="cls-2" d="m22.53,30.48c5.11-3.52,40.64-11.1,57.27-4.48,8.12,3.23,9.34,6.88,9.34,6.88,0,0,.04.12,0-3.38-.07-6.69-10.02-10.39-10.02-10.39-5.13-4.42-11.92-4.05-23.06-4.41-6.98-.22-23.94,2.77-23.94,2.77-17.51,2.19-14.09,10.93-14.09,10.93-5.13,3.22-3.73,8.8-3.73,8.8,0,0,2.19-2.56,8.24-6.72Z"/>
    <path class="cls-2" d="m15.56,48.08c.09-.58-.7-4.82-.94-6.41-.38-2.55,3.99-2.71,3.99-2.71,0,0-2.61-.96-3.26-.82-.75.15-1.83.94-1.6,2.45.18,1.26.76,3.22,1.13,4.76,0,.03.65,2.95.68,2.73Z"/>
    <path class="cls-2" d="m96.24,112.89c-8.68-41.01-30.33-69.78-30.33-69.78l30.33,69.78Z"/>
    <path class="cls-2" d="m95.04,90.04c.68-19.45-13.15-57.98-13.15-57.98-2.44,2.78,13.15,57.98,13.15,57.98Z"/>
    <path class="cls-2" d="m16.83,62.13l2.16-3.11,1.67-2.42s1.61-4.6-3.84-3.53c-2.22.44-4.23,4.42-.04,9.01.01.02.03.03.04.04Z"/>
    <path class="cls-2" d="m67.54,82.87c-1.95-3.46-3.63-6.51-4.69-8.42-5.87-10.65-13.6-19.24-19.63-30.24-6.96-12.69-11.06-12.43-11.06-12.43-9.64-2.87-13.4,6.99-13.4,6.99,4.81-6.73,16.24-4.47,18.25-2.8,2.65,2.2,10.09,17.55,14.49,25.07,3.39,5.8-1.38,14.99-2.73,17.37-1.69,2.25-3.66,4.24-5.89,5.4-5.71,2.96-6.62-.24-7.83-3.03,1.81,1.13,3.63,1.45,3.63,1.45,0,0-5.09-2.83-6.54-7.6-1.51-4.95-5.74-9.08-5.74-9.08.09.08.29.3.56.6-.17-.18-.32-.36-.5-.54,0,0,2.14,5.74-2.34,5.86,0,0-7.91.05-8.44,1.66-.5,1.51.53,2.58,3.36,2.8,0,0-4.29,5.73,1.33,12.99,0,0,1.2,2.37-1.03,5.32-1.78,2.36-1.23,4.34-.47,5.4.77,1.51,2.53,4.11,5.61,4.2,1.81.06,5.06.84,7.02,1.78.6.28,2.84.44,9.4,14.23,0,0-1.23-8.5-6.95-15.2,6.17-2.54,22.29-9.71,28.29-17.7,1.27-1.7,2.02-2.91,2.39-3.76,1.23,2.65,2.68,5.56,4.2,8.53.58,1.79,2.04,8.89-2.3,12.91-11.21,10.39-11.9,14.9-11.9,14.9,8.75-9.98,17.66-13.29,21.42-14.3,3.16,5.75,5.57,9.94,5.57,9.94-1.83-9.87-8.78-23.17-14.09-32.31h0Zm-35.98-7.79c.03.56.13,1.07.26,1.55-1.49-1.32-3.11-2.48-3.66-2.87.87-.76,2.32-2.69.08-6.02,1.44,1.95,3.21,4.85,3.32,7.34Zm-2.18,14.43c-1.86.4-3.37-.33-3.75-.4-.38-.08,5.67-7.76-6.71-3.97.29-.3.6-.79,3.18-1.83,2.55-1.04,3.98-.78,5.38-.26,1.46.55,4.91,3.3,4.83,4.68-.07,1.38-1.2,1.41-2.93,1.78Z"/>
    <path class="cls-2" d="m31.71,57.97c3.6,1.09,10.92-3.16,10.8-4.56h.02s-.01,0-.02-.01c0-.11-.06-.2-.17-.27-.05-.03-.1-.05-.15-.08-1.46-1.66-3.76-4.27-6.53-5.53-2.99-1.36-5.51-.7-7.12-.52-1.43.16-4.41.8-5.47,1.74-1.65,1.47,1.2,3.09,2.15,3.03,1.61-.1,5.6-1.4,5.76-1.42.29-.04.96-.11,1.92-.05-1.26.06-2.47.29-3.62.75-4.99,1.97-2.86,3.42-2.16,4.42,2.77,3.97,7.75,4.91,8.89,4.78,1.1-.12-1.33-.58-2.64-.97-2.17-.64-3.65-1.92-1.64-1.31Z"/>
  </g>
  <g>
    <path class="cls-2" d="m126.48,37.94c-3.48,0-4.75-1.65-4.75-4.24,0-2.37,1.47-4.47,4.56-4.47,1.99,0,3.64.63,3.64.63v6.76h2.34v1.32h-5.79Zm1.83-6.97s-.89-.42-2.19-.42c-1.69,0-2.7,1.2-2.7,2.99,0,2.06.96,3.08,3.3,3.08h1.59v-5.65Zm-3.48-5.02c.53,0,.94.4.94.94s-.4.94-.94.94-.94-.42-.94-.94.42-.94.94-.94Zm2.63,0c.51,0,.94.4.94.94,0,.51-.41.94-.94.94s-.94-.42-.94-.94.41-.94.94-.94Z"/>
    <path class="cls-2" d="m130.46,37.27c0-.4.73-.65,1.09-.65h2.61v-7.19h1.67v7.19h2.35v1.32h-6.63c-.36,0-1.09-.24-1.09-.67Zm3.21,2.32c.53,0,.94.42.94.96,0,.51-.41.94-.94.94s-.94-.44-.94-.94.42-.96.94-.96Zm2.63,0c.51,0,.94.42.94.96,0,.51-.42.94-.94.94s-.94-.44-.94-.94.42-.96.94-.96Z"/>
    <path class="cls-2" d="m140.53,36.24c-.27.98-1.11,1.7-2.61,1.7h-.47c-.36,0-1.09-.24-1.09-.67,0-.4.73-.65,1.09-.65h.2c1.2,0,2.06-.56,2.06-2.97s1.54-4.42,4.53-4.42c2.59,0,3.88,1.47,3.88,4.06v3.33h1.83v1.32h-5.24c-2.64,0-3.59-.69-4.18-1.7Zm5.96-2.68c0-2.16-.89-3.01-2.39-3.01-1.69,0-2.7,1.2-2.7,3.01,0,2.06.98,3.06,3.3,3.06h1.79v-3.06Z"/>
    <path class="cls-2" d="m149.22,37.94c-.36,0-1.08-.24-1.08-.67,0-.4.72-.65,1.08-.65h2.61v-11.45h1.67v12.77h-4.28Z"/>
    <path class="cls-2" d="m156.6,25.18h1.66v11.45h2.34v1.32h-4v-12.77Z"/>
    <path class="cls-2" d="m159.88,37.94c-.37,0-1.09-.24-1.09-.67,0-.4.72-.65,1.09-.65h.4c2.01,0,3.69-.36,4.96-.96-1.27-1.2-2.5-2.54-4.33-3.13l.15-1.16c1.4-1.07,3.41-2.17,5.24-2.17,2.46,0,3.48,1.34,3.48,2.81,0,1.27-.76,2.65-2.17,3.75.76.53,1.59.87,2.61.87h.85v1.32h-1.07c-1.54,0-2.68-.56-3.67-1.36-1.56.83-3.61,1.36-6.09,1.36h-.34Zm6.66-3.04c1.01-.78,1.58-1.74,1.58-2.68s-.62-1.77-2.01-1.77c-1.25,0-2.7.89-3.49,1.45,1.57.6,2.71,1.92,3.93,3.01Z"/>
    <path class="cls-2" d="m170.33,37.94c-.36,0-1.09-.24-1.09-.67,0-.4.73-.65,1.09-.65h2.61v-11.45h1.66v12.77h-4.27Z"/>
    <path class="cls-2" d="m177.7,25.18h1.67v12.77h-1.67v-12.77Z"/>
    <path class="cls-2" d="m193.62,37.94c-3.28,0-4.58-1.49-4.73-3.82h-.52c-1.29,0-1.7.78-1.41,2.63l.94,5.91h-1.63l-.91-5.76c-.38-2.45.51-4.09,3.09-4.09h.51c.33-1.99,1.83-3.57,4.43-3.57s3.88,1.47,3.88,4.06v4.65h-3.66Zm2.03-4.38c0-2.16-.89-3.01-2.39-3.01-1.67,0-2.7,1.2-2.7,3.01,0,2.06.98,3.06,3.29,3.06h1.79v-3.06Z"/>
    <path class="cls-2" d="m199.58,42.25l.11-1.41s1.52.36,2.9.36c1.97,0,3.46-.74,3.46-2.82v-.44h-1.83c-3.48,0-4.75-1.65-4.75-4.24,0-2.37,1.47-4.47,4.57-4.47,2,0,3.64.63,3.64.63v6.76h2.33v1.32h-2.33v.34c0,2.12-1.38,4.24-5.27,4.24-1.4,0-2.83-.27-2.83-.27Zm6.47-11.28s-.89-.42-2.2-.42c-1.68,0-2.7,1.2-2.7,2.99,0,2.06.96,3.08,3.29,3.08h1.6v-5.65Z"/>
    <path class="cls-2" d="m208.2,37.27c0-.4.72-.65,1.09-.65h2.61v-7.19h1.67v7.19h2.35v1.32h-6.62c-.36,0-1.09-.24-1.09-.67Zm3.23-11.32c.52,0,.94.4.94.94s-.4.94-.94.94-.94-.42-.94-.94.42-.94.94-.94Zm2.63,0c.51,0,.94.4.94.94,0,.51-.41.94-.94.94s-.94-.42-.94-.94.41-.94.94-.94Z"/>
    <path class="cls-2" d="m215.2,37.94c-.36,0-1.09-.24-1.09-.67,0-.4.72-.65,1.09-.65h5.42c-.05-3.55-1.58-5.29-4.75-6.19v-1.23l6.87-4.31v1.68l-4.93,3.01c2.73,1.14,4.35,3.06,4.45,7.05h1.34v1.32h-8.4Z"/>
    <path class="cls-2" d="m222.88,37.94c-.36,0-1.09-.24-1.09-.67,0-.4.72-.65,1.09-.65h1.92c.64,0,1.05.09,1.05.09-.89-.56-1.34-1.52-1.34-3.06,0-2.34,1.54-4.42,4.53-4.42,2.59,0,3.88,1.47,3.88,4.06v4.65h-10.03Zm8.4-4.38c0-2.16-.89-3.01-2.39-3.01-1.68,0-2.7,1.2-2.7,3.01,0,2.06.98,3.06,3.3,3.06h1.79v-3.06Z"/>
    <path class="cls-2" d="m245.86,25.18h1.67v11.7c0,3.71-1.85,5.25-4.47,5.25-2.48,0-4.44-1.34-4.44-5.05,0-1.2.15-2.37.43-3.44l1.72-.32c-.33,1.2-.49,2.43-.49,3.6,0,3.1,1.5,3.9,2.93,3.9s2.65-.91,2.65-3.78v-11.85Z"/>
    <path class="cls-2" d="m249.25,23.02l1.5-.45c.12.12.69.63,1.41.63.8,0,1.36-.54,1.48-.63v1.16c-.15.09-.67.51-1.59.51-.76,0-1.29-.38-1.41-.49l-1.4.43v-1.16Zm1.38,2.16h1.67v12.77h-1.67v-12.77Z"/>
    <path class="cls-2" d="m258.14,36.62h5.8c-.06-3.33-1.36-5.16-4.57-6.14l.43-1.39c3.81,1.16,5.67,3.28,5.78,7.54h1.23v1.32h-8.67v-1.32Z"/>
    <path class="cls-2" d="m266.09,37.94c-.36,0-1.08-.24-1.08-.67,0-.4.72-.65,1.08-.65h.8c1.31,0,1.87-.58,1.87-2.48v-3.62h1.67v3.3c0,1.86.07,2.93,1.52,2.93,1.11,0,1.89-.6,1.89-2.92v-4.04h1.63v4.64c0,1.9.71,2.19,2.68,2.19h.58c.09-.78.14-1.85.14-2.52,0-1.97-.25-3.68-.6-5l1.63-.27c.36,1.36.64,3.15.64,5.12,0,1.23-.11,2.77-.29,3.98h-2.05c-2.28,0-3.26-.31-3.76-1.45-.29.76-1.14,1.58-2.77,1.58-1.21,0-2.09-.63-2.34-1.56-.33.89-1.06,1.43-2.43,1.43h-.8Zm7.12-11.95c.53,0,.94.42.94.94s-.41.96-.94.96-.94-.42-.94-.96c0-.51.42-.94.94-.94Zm1.34-2.06c.53,0,.94.42.94.96,0,.51-.42.94-.94.94s-.94-.42-.94-.94.42-.96.94-.96Zm1.32,2.06c.53,0,.96.42.96.94s-.43.96-.96.96-.94-.42-.94-.96c0-.51.43-.94.94-.94Z"/>
    <path class="cls-2" d="m283.41,25.18h1.66v12.77h-1.66v-12.77Z"/>
    <path class="cls-2" d="m286.14,42.33l.18-1.36c.56.18,1.16.31,1.83.31,1.5,0,2.41-.73,2.41-3.1v-8.75h1.67v8.6c0,2.57-.94,4.56-4.2,4.56-.67,0-1.36-.11-1.89-.27Z"/>
    <path class="cls-2" d="m307.54,36.62h2.34v1.32h-2.39c-.28,2.79-1.89,4.19-4.73,4.19-2.48,0-4.49-1.34-4.49-5.05,0-1.2.15-2.37.43-3.44l1.72-.32c-.32,1.2-.49,2.43-.49,3.6,0,3.1,1.56,3.9,2.99,3.9,1.74,0,2.95-.91,2.95-3.68v-7.7h1.67v7.19Zm-4.8-7.25c.54,0,1,.44,1,.98s-.45,1-1,1-.98-.46-.98-1,.45-.98.98-.98Z"/>
    <path class="cls-2" d="m309.16,37.94c-.36,0-1.08-.24-1.08-.67,0-.4.72-.65,1.08-.65h2.61v-7.19h1.67v8.51h-4.28Zm3.33,1.59c.54,0,.98.42.98.98s-.44.98-.98.98-.96-.44-.96-.98.42-.98.96-.98Z"/>
    <path class="cls-2" d="m319.29,36.62h5.8c-.05-3.33-1.36-5.16-4.56-6.14l.43-1.39c3.8,1.16,5.67,3.28,5.78,7.54h1.23v1.32h-8.68v-1.32Z"/>
    <path class="cls-2" d="m330.32,36.24c-.27.98-1.11,1.7-2.61,1.7h-.47c-.36,0-1.08-.24-1.08-.67,0-.4.72-.65,1.08-.65h.2c1.2,0,2.07-.56,2.07-2.97s1.54-4.42,4.53-4.42c2.59,0,3.88,1.47,3.88,4.06v3.33h1.83v1.32h-5.24c-2.64,0-3.59-.69-4.18-1.7Zm5.96-2.68c0-2.16-.89-3.01-2.39-3.01-1.68,0-2.7,1.2-2.7,3.01,0,2.06.98,3.06,3.3,3.06h1.79v-3.06Z"/>
    <path class="cls-2" d="m337.93,37.27c0-.4.72-.65,1.09-.65h6.76c.09-.64.12-1.27.12-1.87,0-2.73-.99-4.07-3.95-4.07-.71,0-1.5.07-2.17.18v-1.31c.59-.11,1.52-.2,2.3-.2,4,0,5.49,1.83,5.49,5.29,0,.56-.05,1.23-.12,1.97h1.41v1.32h-9.83c-.37,0-1.09-.24-1.09-.67Z"/>
    <path class="cls-2" d="m348.13,37.94c-.36,0-1.08-.24-1.08-.67,0-.4.72-.65,1.08-.65h1.92c.63,0,1.05.09,1.05.09-.88-.56-1.34-1.52-1.34-3.06,0-2.34,1.54-4.42,4.52-4.42,2.59,0,3.88,1.47,3.88,4.06v4.65h-10.04Zm8.4-4.38c0-2.16-.89-3.01-2.39-3.01-1.69,0-2.7,1.2-2.7,3.01,0,2.06.98,3.06,3.29,3.06h1.79v-3.06Z"/>
    <path class="cls-2" d="m370.32,37.94c-4.56,0-6.32-1.83-6.32-5.27,0-1.1.25-2.3.58-3.02l1.79-.29c-.43.85-.7,2.1-.7,3.12,0,2.75,1.09,4.15,4.87,4.15h3.08v-7.19h1.66v8.51h-4.96Zm-1.5-11.99c.52,0,.94.4.94.94s-.4.94-.94.94-.94-.42-.94-.94.41-.94.94-.94Zm2.63,0c.51,0,.94.4.94.94,0,.51-.41.94-.94.94s-.94-.42-.94-.94.42-.94.94-.94Z"/>
    <path class="cls-2" d="m378.38,25.18h1.67v12.77h-1.67v-12.77Z"/>
    <path class="cls-2" d="m379.77,42.33l.18-1.36c.56.18,1.16.31,1.83.31,1.5,0,2.41-.73,2.41-3.1v-8.75h1.66v8.6c0,2.57-.94,4.56-4.2,4.56-.67,0-1.36-.11-1.89-.27Z"/>
    <path class="cls-2" d="m388.1,36.62h5.79c-.05-3.33-1.36-5.16-4.57-6.14l.44-1.39c3.93,1.2,5.78,3.41,5.78,7.95v.9h-7.44v-1.32Z"/>
    <path class="cls-2" d="m398.23,25.18h1.67v11.45h2.33v1.32h-4v-12.77Z"/>
    <path class="cls-2" d="m401.51,37.94c-.37,0-1.09-.24-1.09-.67,0-.4.72-.65,1.09-.65h2.61v-7.19h1.66v7.19h2.36v1.32h-6.63Zm3.42,1.59c.54,0,.98.42.98.98s-.44.98-.98.98-.96-.44-.96-.98.42-.98.96-.98Z"/>
    <path class="cls-2" d="m407.41,37.94c-.36,0-1.08-.24-1.08-.67,0-.4.72-.65,1.08-.65h1.92c.63,0,1.05.09,1.05.09-.89-.56-1.34-1.52-1.34-3.06,0-2.34,1.54-4.42,4.53-4.42,2.59,0,3.88,1.47,3.88,4.06v4.65h-10.04Zm8.41-4.38c0-2.16-.89-3.01-2.39-3.01-1.69,0-2.7,1.2-2.7,3.01,0,2.06.98,3.06,3.3,3.06h1.8v-3.06Z"/>
  </g>
  <g>
    <g>
      <path class="cls-2" d="m137.64,65.38h-1.65l.02-12.18-5.44,9.06h-1.12l-5.49-9.14.05,12.25h-1.65v-15.81h1.28l6.37,10.69,6.37-10.69h1.26v15.81Z"/>
      <path class="cls-2" d="m152.1,60.01c0,3.23-2.49,5.72-5.7,5.72s-5.72-2.49-5.72-5.72,2.49-5.65,5.72-5.65,5.7,2.46,5.7,5.65Zm-1.58,0c0-2.3-1.77-4.18-4.12-4.18s-4.11,1.88-4.11,4.18,1.77,4.28,4.11,4.28,4.12-1.9,4.12-4.28Z"/>
      <path class="cls-2" d="m164.89,59.2v6.19h-1.58v-6.12c0-2.23-1.33-3.51-3.28-3.51-1.37,0-2.77.72-3.7,2v7.62h-1.58v-16.5h1.58v7.04c1-1.02,2.4-1.63,3.98-1.63,2.7,0,4.58,1.88,4.58,4.9Z"/>
      <path class="cls-2" d="m178.16,65.38h-1.58v-1.18c-.98.93-2.28,1.49-3.89,1.49-3.07,0-5.56-2.51-5.56-5.67s2.49-5.65,5.56-5.65c1.6,0,2.91.56,3.89,1.49v-1.21h1.58v10.74Zm-1.58-3.04v-4.63c-.91-1.3-2.21-1.95-3.67-1.95-2.37,0-4.16,1.95-4.16,4.25s1.79,4.28,4.16,4.28c1.46,0,2.77-.65,3.67-1.95Z"/>
      <path class="cls-2" d="m199.06,59.2v6.19h-1.58v-6.12c0-2.23-1.16-3.51-3.09-3.51-1.32,0-2.58.63-3.44,2.07.09.42.14.89.14,1.37v6.19h-1.58v-6.12c0-2.23-1.19-3.51-3.09-3.51-1.28,0-2.46.65-3.32,1.95v7.67h-1.58v-10.74h1.58v1.23c.88-1,1.97-1.58,3.6-1.58s2.9.72,3.67,2c1.05-1.28,2.39-2,4.3-2,2.58,0,4.39,1.88,4.39,4.9Z"/>
      <path class="cls-2" d="m219.5,59.2v6.19h-1.58v-6.12c0-2.23-1.17-3.51-3.09-3.51-1.33,0-2.58.63-3.44,2.07.09.42.14.89.14,1.37v6.19h-1.58v-6.12c0-2.23-1.19-3.51-3.09-3.51-1.28,0-2.46.65-3.32,1.95v7.67h-1.58v-10.74h1.58v1.23c.89-1,1.97-1.58,3.6-1.58s2.91.72,3.67,2c1.05-1.28,2.39-2,4.3-2,2.58,0,4.4,1.88,4.4,4.9Z"/>
      <path class="cls-2" d="m232.56,60.64l-.09-.04v.04h-9.09c.23,2.04,1.7,3.67,4.02,3.67,1.49,0,2.63-.63,3.12-1.65h1.72c-.63,1.84-2.51,3.02-4.88,3.02-3.28,0-5.58-2.49-5.58-5.67s2.3-5.65,5.58-5.65c3.07,0,5.2,2.37,5.23,5.6,0,.23,0,.46-.03.67Zm-9.18-1.23h7.6c-.19-2.16-1.56-3.68-3.67-3.68-2.26,0-3.7,1.65-3.93,3.68Z"/>
      <path class="cls-2" d="m245.55,65.38h-1.58v-1.18c-.97.93-2.28,1.46-3.88,1.46-3.07,0-5.56-2.51-5.56-5.65s2.49-5.65,5.56-5.65c1.6,0,2.91.53,3.88,1.46v-6.95h1.58v16.5Zm-1.58-3.07v-4.61c-.91-1.32-2.21-1.98-3.67-1.98-2.37,0-4.16,1.96-4.16,4.28s1.79,4.25,4.16,4.25c1.46,0,2.76-.65,3.67-1.95Z"/>
      <g>
        <path class="cls-2" d="m258.73,60.47c.83-.41,1.31-1.18,1.31-2.15,0-1.53-1.26-2.52-3.2-2.52h-4.14v9.73h4.22c2.15,0,3.6-1.09,3.6-2.71,0-1.15-.65-2-1.79-2.35Zm-2.15-.45h-2.6v-3.05h2.77c1.27,0,2.06.56,2.06,1.47,0,1.01-.81,1.59-2.23,1.59Zm-2.6,1.17h2.95c1.49,0,2.34.55,2.34,1.52s-.93,1.66-2.37,1.66h-2.92v-3.18Z"/>
        <path class="cls-2" d="m262.7,55.76c-.44,0-.8.34-.8.78s.34.78.8.78.81-.34.81-.78-.35-.78-.81-.78Z"/>
        <rect class="cls-2" x="262.08" y="58.82" width="1.24" height="6.7"/>
        <path class="cls-2" d="m268.68,58.62c-.83,0-1.62.28-2.23.78v-.58h-1.24v6.7h1.24v-4.65c.51-.69,1.28-1.1,2.06-1.1,1.12,0,1.81.75,1.81,1.95v3.8h1.24v-3.84c0-1.83-1.16-3.07-2.88-3.07Z"/>
      </g>
      <path class="cls-2" d="m279.24,59.64v5.74h-1.65v-15.81h5.88c3.56,0,6.02,1.93,6.02,5.05,0,2.58-1.72,4.37-4.37,4.88l5.07,5.88h-2.07l-4.95-5.74h-3.93Zm4.18-1.51c2.58,0,4.42-1.33,4.42-3.51s-1.84-3.54-4.42-3.54h-4.18v7.05h4.18Z"/>
      <path class="cls-2" d="m301.93,65.38h-1.58v-1.18c-.97.93-2.28,1.49-3.88,1.49-3.07,0-5.56-2.51-5.56-5.67s2.49-5.65,5.56-5.65c1.6,0,2.91.56,3.88,1.49v-1.21h1.58v10.74Zm-1.58-3.04v-4.63c-.91-1.3-2.21-1.95-3.67-1.95-2.37,0-4.16,1.95-4.16,4.25s1.79,4.28,4.16,4.28c1.47,0,2.77-.65,3.67-1.95Z"/>
      <path class="cls-2" d="m306.05,62.06c.32,1.46,1.47,2.35,3.56,2.35,1.74,0,2.93-.74,2.93-1.91,0-.95-.77-1.53-1.86-1.7l-2.44-.42c-1.79-.28-3.18-1.07-3.18-2.88,0-1.93,1.72-3.19,4.3-3.19,2.18,0,4.46.95,4.65,3.42h-1.47c-.21-1.4-1.37-2.14-3.18-2.14-1.7,0-2.75.74-2.75,1.79,0,.81.58,1.44,2.12,1.67l2.14.37c1.56.26,3.21.93,3.21,2.98s-1.88,3.32-4.51,3.32c-2.79,0-4.65-1.23-5-3.67h1.49Z"/>
      <path class="cls-2" d="m327.09,59.2v6.19h-1.58v-6.12c0-2.23-1.33-3.51-3.28-3.51-1.37,0-2.77.72-3.69,2v7.62h-1.58v-16.5h1.58v7.04c1-1.02,2.39-1.63,3.98-1.63,2.69,0,4.58,1.88,4.58,4.9Z"/>
      <path class="cls-2" d="m329.99,50.57c0-.6.49-1.07,1.09-1.07s1.12.46,1.12,1.07-.49,1.07-1.12,1.07-1.09-.44-1.09-1.07Zm1.88,14.81h-1.58v-10.74h1.58v10.74Z"/>
      <path class="cls-2" d="m345.83,65.38h-1.58v-1.18c-.98.93-2.28,1.46-3.89,1.46-3.07,0-5.56-2.51-5.56-5.65s2.49-5.65,5.56-5.65c1.61,0,2.91.53,3.89,1.46v-6.95h1.58v16.5Zm-1.58-3.07v-4.61c-.91-1.32-2.21-1.98-3.67-1.98-2.37,0-4.16,1.96-4.16,4.28s1.79,4.25,4.16,4.25c1.46,0,2.77-.65,3.67-1.95Z"/>
    </g>
    <g>
      <path class="cls-2" d="m125.54,84.12l-2.04,4.6h-1.77l7.18-15.92h1.56l7.18,15.92h-1.77l-2.05-4.6h-8.3Zm4.14-9.35l-3.46,7.84h6.95l-3.49-7.84Z"/>
      <path class="cls-2" d="m141.31,88.72h-1.58v-16.5h1.58v16.5Z"/>
      <path class="cls-2" d="m165.9,88.72h-1.65l.03-12.18-5.44,9.06h-1.12l-5.48-9.14.05,12.25h-1.65v-15.81h1.28l6.37,10.7,6.37-10.7h1.26v15.81Z"/>
      <path class="cls-2" d="m179.97,88.72h-1.58v-1.19c-.98.93-2.28,1.49-3.88,1.49-3.07,0-5.56-2.51-5.56-5.67s2.48-5.65,5.56-5.65c1.6,0,2.9.56,3.88,1.49v-1.21h1.58v10.74Zm-1.58-3.04v-4.63c-.91-1.3-2.21-1.95-3.67-1.95-2.37,0-4.16,1.95-4.16,4.26s1.79,4.27,4.16,4.27c1.47,0,2.77-.65,3.67-1.95Z"/>
      <path class="cls-2" d="m185.03,85.77v2.95h-1.58v-16.5h1.58v11.46l6.05-5.7h2.04l-4.67,4.51,5.55,6.23h-2.07l-4.63-5.13-2.28,2.18Z"/>
      <path class="cls-2" d="m202.77,88.69c-.98.28-1.6.37-2.33.37-2.46,0-3.72-1.42-3.72-4.21v-5.51h-2.86v-1.37h2.86v-3.98h1.58v3.98h4.07v1.37h-4.07v5.51c0,1.95.77,2.74,2.4,2.74.56,0,1.23-.12,1.81-.28l.26,1.37Z"/>
      <path class="cls-2" d="m215.14,83.35c0,3.23-2.49,5.71-5.7,5.71s-5.72-2.49-5.72-5.71,2.49-5.65,5.72-5.65,5.7,2.46,5.7,5.65Zm-1.58,0c0-2.3-1.77-4.19-4.11-4.19s-4.11,1.89-4.11,4.19,1.76,4.27,4.11,4.27,4.11-1.91,4.11-4.27Z"/>
      <path class="cls-2" d="m227.51,88.72h-1.58v-1.26c-1,1-2.37,1.6-3.96,1.6-2.7,0-4.58-1.86-4.58-4.88v-6.21h1.58v6.12c0,2.25,1.33,3.53,3.28,3.53,1.35,0,2.74-.72,3.67-2v-7.65h1.58v10.74Z"/>
      <path class="cls-2" d="m248.41,82.53v6.18h-1.58v-6.11c0-2.23-1.16-3.51-3.1-3.51-1.32,0-2.58.63-3.44,2.07.1.42.14.88.14,1.37v6.18h-1.58v-6.11c0-2.23-1.19-3.51-3.09-3.51-1.28,0-2.46.65-3.32,1.95v7.67h-1.58v-10.74h1.58v1.23c.89-1,1.98-1.58,3.61-1.58s2.9.72,3.67,2c1.04-1.28,2.39-2,4.3-2,2.58,0,4.39,1.88,4.39,4.91Z"/>
      <path class="cls-2" d="m272.07,80.81v7.9h-1.35l-.14-3.37c-1.11,2.23-3.18,3.7-6.14,3.7-4.65,0-8.16-3.67-8.16-8.14,0-4.74,3.7-8.32,8.28-8.32,3.46,0,6.63,2.05,7.48,5.53h-1.77c-.79-2.61-3.23-3.95-5.69-3.95-3.72,0-6.63,2.86-6.63,6.74,0,3.58,2.72,6.53,6.49,6.53,3.37,0,5.48-2.37,5.9-5.49h-6.04v-1.51h7.79l-.05.37h.02Z"/>
      <path class="cls-2" d="m277.05,88.72h-1.58v-16.5h1.58v16.5Z"/>
      <path class="cls-2" d="m291.18,83.35c0,3.23-2.49,5.71-5.69,5.71s-5.72-2.49-5.72-5.71,2.49-5.65,5.72-5.65,5.69,2.46,5.69,5.65Zm-1.58,0c0-2.3-1.77-4.19-4.11-4.19s-4.12,1.89-4.12,4.19,1.77,4.27,4.12,4.27,4.11-1.91,4.11-4.27Z"/>
      <path class="cls-2" d="m304.85,83.35c0,3.13-2.46,5.65-5.55,5.65-1.58,0-2.9-.56-3.88-1.49v1.21h-1.58v-16.5h1.58v6.98c.98-.93,2.3-1.49,3.88-1.49,3.09,0,5.55,2.51,5.55,5.65Zm-1.58,0c0-2.33-1.81-4.28-4.16-4.28-1.49,0-2.79.67-3.7,2.02v4.51c.91,1.35,2.21,2,3.7,2,2.35,0,4.16-1.95,4.16-4.25Z"/>
      <path class="cls-2" d="m317.85,88.72h-1.58v-1.19c-.98.93-2.28,1.49-3.88,1.49-3.07,0-5.56-2.51-5.56-5.67s2.49-5.65,5.56-5.65c1.6,0,2.9.56,3.88,1.49v-1.21h1.58v10.74Zm-1.58-3.04v-4.63c-.91-1.3-2.21-1.95-3.67-1.95-2.37,0-4.16,1.95-4.16,4.26s1.79,4.27,4.16,4.27c1.46,0,2.77-.65,3.67-1.95Z"/>
      <path class="cls-2" d="m322.78,88.72h-1.58v-16.5h1.58v16.5Z"/>
      <path class="cls-2" d="m333.75,88.72h-1.65v-15.81h1.65v15.81Z"/>
      <path class="cls-2" d="m347.47,82.53v6.18h-1.58v-6.11c0-2.23-1.32-3.51-3.28-3.51-1.37,0-2.76.72-3.69,2v7.62h-1.58v-10.74h1.58v1.28c1-1.02,2.39-1.63,3.97-1.63,2.69,0,4.58,1.88,4.58,4.91Z"/>
      <path class="cls-2" d="m350.37,73.91c0-.6.49-1.06,1.09-1.06s1.11.46,1.11,1.06-.49,1.07-1.11,1.07-1.09-.44-1.09-1.07Zm1.88,14.81h-1.58v-10.74h1.58v10.74Z"/>
      <path class="cls-2" d="m362.95,88.69c-.98.28-1.6.37-2.32.37-2.47,0-3.72-1.42-3.72-4.21v-5.51h-2.86v-1.37h2.86v-3.98h1.58v3.98h4.07v1.37h-4.07v5.51c0,1.95.77,2.74,2.39,2.74.56,0,1.23-.12,1.82-.28l.25,1.37Z"/>
      <path class="cls-2" d="m365.39,73.91c0-.6.49-1.06,1.09-1.06.63,0,1.12.46,1.12,1.06s-.49,1.07-1.12,1.07-1.09-.44-1.09-1.07Zm1.88,14.81h-1.58v-10.74h1.58v10.74Z"/>
      <path class="cls-2" d="m381.22,88.72h-1.58v-1.19c-.98.93-2.28,1.49-3.88,1.49-3.07,0-5.55-2.51-5.55-5.67s2.48-5.65,5.55-5.65c1.6,0,2.9.56,3.88,1.49v-1.21h1.58v10.74Zm-1.58-3.04v-4.63c-.91-1.3-2.21-1.95-3.67-1.95-2.37,0-4.16,1.95-4.16,4.26s1.79,4.27,4.16,4.27c1.46,0,2.76-.65,3.67-1.95Z"/>
      <path class="cls-2" d="m391.59,88.69c-.97.28-1.6.37-2.32.37-2.47,0-3.72-1.42-3.72-4.21v-5.51h-2.86v-1.37h2.86v-3.98h1.58v3.98h4.07v1.37h-4.07v5.51c0,1.95.77,2.74,2.4,2.74.55,0,1.23-.12,1.81-.28l.25,1.37Z"/>
      <path class="cls-2" d="m394.03,73.91c0-.6.49-1.06,1.09-1.06s1.11.46,1.11,1.06-.49,1.07-1.11,1.07-1.09-.44-1.09-1.07Zm1.88,14.81h-1.58v-10.74h1.58v10.74Z"/>
      <path class="cls-2" d="m404.54,88.72h-1.47l-5.12-10.74h1.7l4.14,8.72,4.14-8.72h1.72l-5.12,10.74Z"/>
      <path class="cls-2" d="m421.07,83.98l-.09-.05v.05h-9.09c.23,2.04,1.7,3.67,4.02,3.67,1.49,0,2.63-.63,3.12-1.65h1.72c-.63,1.84-2.51,3.02-4.89,3.02-3.27,0-5.58-2.49-5.58-5.67s2.3-5.65,5.58-5.65c3.07,0,5.21,2.37,5.24,5.6,0,.23,0,.46-.02.67Zm-9.18-1.23h7.6c-.19-2.16-1.56-3.68-3.67-3.68-2.26,0-3.7,1.65-3.93,3.68Z"/>
      <path class="cls-2" d="m424.37,85.39c.33,1.46,1.47,2.35,3.56,2.35,1.74,0,2.93-.75,2.93-1.91,0-.95-.77-1.53-1.86-1.7l-2.44-.42c-1.79-.28-3.18-1.07-3.18-2.88,0-1.93,1.72-3.18,4.3-3.18,2.19,0,4.46.95,4.65,3.42h-1.46c-.21-1.4-1.37-2.14-3.19-2.14-1.69,0-2.74.74-2.74,1.79,0,.81.58,1.44,2.11,1.68l2.14.37c1.56.25,3.21.93,3.21,2.97s-1.88,3.32-4.51,3.32c-2.79,0-4.65-1.23-5-3.67h1.49Z"/>
    </g>
  </g>
  <rect class="cls-1" x="121.73" y="107.74" width="158.79" height="7.84"/>
</svg>