<?xml version="1.0" encoding="UTF-8"?>
<svg id="Layer_1" data-name="Layer 1" xmlns="http://www.w3.org/2000/svg" viewBox="0 0 306.13 203.55">
  <defs>
    <style>
      .cls-1 {
        fill: #fff;
        stroke-width: 0px;
      }
    </style>
  </defs>
  <g>
    <g>
      <g id="Mothers_Day_Arabic" data-name="Mothers Day Arabic">
        <g id="Mothers_Fay_Arabic" data-name="Mothers Fay Arabic">
          <g>
            <path class="cls-1" d="m139.15,40.89c-.03-5.53,2.29-14.77,6.97-27.72.63-1.77,1.21-2.69,1.76-2.76.31-.01.5.31.57.96.05.5.03,1.12-.08,1.85-.5,3.81-.7,12.08-.58,24.81.1,18.13.13,28.48.08,31.04-.18,12.48-2.62,23.01-7.32,31.55-.45.83-.8,1.34-1.06,1.54-.28.22-.48.13-.58-.28-.06-.34-.04-.93.09-1.77.71-4.57.96-12.33.74-23.28-.15-11.97-.35-23.95-.58-35.93Z"/>
            <path class="cls-1" d="m123.4,84.13c-6.66,25.38-21.27,24.19-27.91,23.71-7.43-.54-11.66-11.87-10.36-15.11.28-.7,7.36.03,7.49-.3,1.41-3.31,2.24-7.13,2.65-9.37.77-3.9,1.27-9.09,1.48-15.57.18-4.54.01-9.99-.53-16.37-.63-7.41-.96-11.85-.98-13.3-.03-1.45.65-4.74,2.01-9.88,1.39-5.34,2.87-10.04,4.43-14.07.8-2.09,1.48-3.19,2.05-3.28.36-.04.59.37.72,1.25.1.68.1,1.56.03,2.65.19,11.99-.01,28.56-.63,49.69-1.11,13.44-3.37,23.17-7.72,28.47.05-.06,3.65-.11,5.47-.38,4.67-.65,8.85-2.43,12.52-6.23,3.41-3.54,5.44-7.38,6.08-11.52.53-3.37.58-10.62.14-21.77-.23-6.56-.5-13.14-.8-19.73.03-2.07.84-5.96,2.44-11.68,1.51-5.41,3.01-9.94,4.49-13.61.72-1.68,1.37-2.56,1.94-2.66.41-.04.67.34.77,1.12.08.49.08,1.15,0,1.96-.36,3.51-.67,16.37-.9,38.59-.21,15.62-1.85,28.08-4.89,37.37Z"/>
          </g>
        </g>
      </g>
      <g>
        <path class="cls-1" d="m183.44,103.75c-2.19,0-4.12-.22-5.79-.67-1.67-.44-3.09-1.1-4.25-1.97s-2.04-1.94-2.64-3.2c-.6-1.26-.9-2.7-.9-4.31,0-1.06.15-2.2.46-3.41.31-1.21.75-2.47,1.33-3.77.2-.48.44-.81.69-1,.26-.19.57-.2.95-.03l1.74.62c.27.1.51.22.72.36.21.14.22.41.05.82-.99,2.19-1.49,4.03-1.49,5.54,0,2.12.85,3.66,2.54,4.64,1.69.97,4.09,1.46,7.2,1.46h10.71c1.74,0,3.36-.06,4.87-.18,1.5-.12,2.68-.28,3.54-.49-.96-.75-1.85-1.78-2.66-3.08-.82-1.3-1.25-2.8-1.28-4.51,0-1.81.42-3.39,1.26-4.74.84-1.35,1.96-2.39,3.36-3.13,1.4-.73,2.92-1.1,4.56-1.1s3.06.38,4.36,1.13c1.3.75,2.33,1.78,3.1,3.08.77,1.3,1.15,2.79,1.15,4.46,0,1.5-.36,2.9-1.08,4.18-.72,1.28-1.88,2.52-3.49,3.72.96.2,1.9.35,2.82.44.92.09,1.96.15,3.13.18,1.16.03,2.58.05,4.25.05.24,0,.44.08.59.23s.23.35.23.59v2.46c0,1.09-.55,1.64-1.64,1.64-1.78,0-3.35-.04-4.72-.13-1.37-.08-2.61-.21-3.72-.38-1.11-.17-2.14-.4-3.1-.69-.96-.29-1.9-.67-2.82-1.15-1.02.44-1.99.82-2.9,1.13s-1.84.56-2.79.74c-.96.19-2.04.32-3.25.38s-2.67.1-4.38.1h-10.71Zm24.55-6.92c1.67-.82,2.91-1.79,3.72-2.9.8-1.11,1.2-2.2,1.2-3.25,0-1.4-.42-2.53-1.26-3.38-.84-.85-2.01-1.28-3.51-1.28-1.26,0-2.38.4-3.33,1.2-.96.8-1.44,1.89-1.44,3.25s.38,2.55,1.13,3.54c.75.99,1.91,1.93,3.49,2.82Zm1.02-20.86c-.17.17-.38.25-.62.23-.24-.02-.46-.11-.67-.28l-1.95-1.95c-.17-.21-.26-.43-.26-.67s.09-.44.26-.62l1.95-1.95c.2-.17.42-.26.64-.28.22-.02.42.08.59.28l1.95,1.95c.48.48.49.92.05,1.33l-1.95,1.95Z"/>
        <path class="cls-1" d="m222.34,103.75c-.44,0-.75-.08-.92-.23-.17-.15-.26-.38-.26-.69v-2.87c0-.48.14-.79.41-.92.27-.14.65-.21,1.13-.21h14.15c.51,0,.77.26.77.77v3.02c0,.48-.14.79-.41.92-.27.14-.65.21-1.13.21h-13.74Z"/>
        <path class="cls-1" d="m236.49,103.75c-.44,0-.75-.08-.92-.23-.17-.15-.26-.38-.26-.69v-2.87c0-.48.14-.79.41-.92.27-.14.65-.21,1.13-.21h14.15c.51,0,.77.26.77.77v3.02c0,.48-.14.79-.41.92-.27.14-.65.21-1.13.21h-13.74Z"/>
        <path class="cls-1" d="m250.69,103.75c-.48,0-.8-.09-.97-.28s-.25-.4-.23-.64c.02-.24.03-.44.03-.62v-2.1c0-.55.07-.9.21-1.05s.46-.23.97-.23h11.43c1.91,0,3.41-.31,4.48-.92s1.81-1.67,2.2-3.15c.39-1.49.5-3.53.33-6.12l.97,1.08c-.79,1.09-1.85,1.9-3.2,2.41-1.35.51-2.71.77-4.07.77-1.67,0-3.14-.33-4.38-1-1.25-.67-2.2-1.61-2.84-2.82-.65-1.21-.97-2.62-.97-4.23.03-1.71.46-3.23,1.28-4.56.82-1.33,1.9-2.37,3.23-3.13,1.33-.75,2.75-1.13,4.25-1.13,2.08,0,3.84.54,5.25,1.61,1.42,1.08,2.5,2.57,3.25,4.48.75,1.91,1.13,4.12,1.13,6.61,0,2.22-.16,4.25-.49,6.1-.33,1.85-.91,3.43-1.77,4.77-.85,1.33-2.06,2.36-3.61,3.08-1.56.72-3.55,1.08-5.97,1.08h-10.51Zm9.53-33.32c-.17.17-.38.26-.62.26s-.46-.1-.67-.31l-1.85-1.9c-.17-.2-.26-.42-.26-.64s.08-.44.26-.64l1.85-1.9c.21-.2.43-.31.67-.31s.44.1.62.31l1.9,1.9c.21.17.32.38.33.64.02.26-.08.49-.28.69l-1.95,1.9Zm2.77,18.09c1.02,0,2.09-.18,3.2-.54,1.11-.36,2.08-.88,2.9-1.56-.1-.92-.39-1.86-.87-2.82-.48-.96-1.15-1.76-2.02-2.41-.87-.65-1.96-.97-3.25-.97-.99,0-1.84.22-2.54.67-.7.44-1.23,1.01-1.59,1.69-.36.68-.54,1.33-.54,1.95,0,1.33.47,2.33,1.41,3,.94.67,2.04,1,3.31,1Zm4.87-18.09c-.17.2-.38.29-.62.26-.24-.03-.46-.14-.67-.31l-1.95-1.9c-.17-.17-.26-.38-.26-.64s.08-.47.26-.64l1.95-1.9c.21-.2.41-.31.62-.31s.41.1.62.31l1.9,1.9c.21.17.31.38.31.64s-.1.49-.31.69l-1.85,1.9Z"/>
        <path class="cls-1" d="m278.93,116.25c-.44,0-.79-.1-1.02-.31-.24-.2-.36-.55-.36-1.02v-2.26c0-.41.12-.71.36-.9.24-.19.62-.28,1.13-.28h2.56c2.97,0,5.36-.53,7.18-1.59,1.81-1.06,3.12-2.69,3.92-4.9.8-2.2,1.14-5.01,1-8.43l3.74.1c0,4.31-.55,7.92-1.64,10.84-1.09,2.92-2.83,5.11-5.2,6.56-2.38,1.45-5.49,2.18-9.35,2.18h-2.31Zm14.61-19.63c-.07-2.19-.62-3.93-1.64-5.23-1.02-1.3-2.38-1.95-4.05-1.95-1.16,0-2.12.23-2.87.69s-1.31,1.05-1.67,1.77c-.36.72-.54,1.45-.54,2.2,0,1.23.44,2.2,1.33,2.9.89.7,2.02,1.05,3.38,1.05,1.5,0,2.85-.24,4.05-.72,1.2-.48,2-1.01,2.41-1.59l.51,4.05c-.68.85-1.66,1.55-2.92,2.08-1.27.53-2.72.78-4.36.74-1.74-.03-3.21-.44-4.41-1.2-1.2-.77-2.1-1.76-2.72-2.97-.62-1.21-.92-2.54-.92-3.97,0-1.3.2-2.53.59-3.69.39-1.16.98-2.18,1.77-3.05.79-.87,1.73-1.55,2.84-2.05,1.11-.49,2.37-.74,3.77-.74,1.78,0,3.36.47,4.77,1.41,1.4.94,2.51,2.28,3.33,4.02.82,1.74,1.23,3.84,1.23,6.3l-3.89-.05Z"/>
      </g>
    </g>
    <g id="_3Nwx3j" data-name="3Nwx3j">
      <path class="cls-1" d="m90.36,17.61c-.22.73-.44,1.46-.65,2.19-.07.25-.19.45-.39.59-.3.2-.61.39-.92.58-.76.45-1.52.88-2.27,1.33-.2.12-.39.27-.56.43-.25.24-.26.41-.06.7.27.39.65.66,1.05.88.71.38,1.42.73,2.13,1.1.47.25.92.53,1.3.9.66.63.9,1.39.76,2.29-.14.89-.47,1.7-.89,2.48-1.12,2.03-2.65,3.7-4.52,5.06-.94.69-2.01,1.02-3.16,1.13-1.75.16-3.51.24-5.27.18-.28,0-.58-.05-.85-.14-.41-.14-.5-.67-.15-.93.2-.15.44-.27.68-.34.88-.28,1.76-.53,2.65-.79,1.49-.43,2.97-.9,4.39-1.5.67-.28,1.32-.59,1.86-1.09.16-.15.31-.33.43-.52.25-.39.2-.76-.12-1.09-.31-.34-.71-.56-1.12-.76-.7-.35-1.41-.67-2.1-1.03-.4-.21-.76-.49-1.03-.87-.39-.55-.48-1.18-.43-1.83.06-.74.28-1.44.56-2.12.94-2.27,2.33-4.24,4-6.03,1.06-1.14,2.16-2.23,3.39-3.19.36-.28.71-.56,1.15-.71.19-.06.38-.1.56,0,.28.14.38.43.28.77-.23.78-.47,1.56-.7,2.34Z"/>
    </g>
    <path class="cls-1" d="m80.33,192.91c-20.18,0-72.94,1.6-69.71-47.94.69-10.52,5.5-23.81,15.41-34.67,10.45-11.44,25.23-17.95,40.71-18.57.09,0,.17,0,.26-.01,1.82-.07,3.49-1.05,4.42-2.62,1.05-1.75,2.17-4.28,4.07-7.81,2.25-4.21,3.01-7.12,3.4-9.88.16-1.13-2.75-3.56-6.96-6.31-3.45-2.25-6.48-4.53-8.9-4.53-1.78.65-9.02,13.84-10.36,16.84-4.85.6-10.13,3.2-15.68,7.1-15.83,11.13-30.18,31.8-30.18,59.28,0,52.77,46.87,51.49,73.12,51.49l215.14.1v-2.31l-214.73-.16Z"/>
  </g>
  <g>
    <path class="cls-1" d="m41.8,173.37c-.11,0-.2-.03-.26-.1s-.09-.15-.09-.25v-9.92c0-.11.03-.2.09-.27.06-.07.15-.1.26-.1h6.28c.11,0,.2.03.26.1.06.07.09.15.09.27v.58c0,.11-.03.2-.09.26s-.15.09-.26.09h-5.17v3.33h4.83c.11,0,.2.03.26.1s.09.15.09.27v.56c0,.1-.03.18-.09.25-.06.07-.15.1-.26.1h-4.83v3.45h5.29c.11,0,.2.03.26.09s.09.15.09.26v.59c0,.1-.03.18-.09.25s-.15.1-.26.1h-6.4Z"/>
    <path class="cls-1" d="m53.25,173.52c-.56,0-1.04-.1-1.44-.3-.4-.2-.74-.47-.99-.81-.26-.34-.45-.73-.58-1.16s-.2-.9-.22-1.38c-.01-.16-.02-.31-.02-.46s0-.29.02-.46c.02-.48.09-.93.22-1.37.13-.44.32-.83.58-1.17.26-.34.59-.62.99-.81.41-.2.89-.3,1.44-.3.6,0,1.09.11,1.49.32.39.21.72.48.97.79v-3.5c0-.1.03-.18.1-.25.07-.07.15-.1.25-.1h.73c.1,0,.19.03.25.1.07.07.1.15.1.25v10.09c0,.1-.03.18-.1.25s-.15.1-.25.1h-.68c-.11,0-.2-.03-.26-.1s-.09-.15-.09-.25v-.64c-.25.32-.58.6-.99.81-.41.22-.91.33-1.52.33Zm.32-1.23c.51,0,.91-.12,1.22-.35.3-.23.53-.53.68-.89.15-.36.23-.73.24-1.1.01-.16.02-.36.02-.59s0-.42-.02-.59c-.01-.35-.09-.7-.25-1.05-.16-.34-.39-.63-.7-.85-.31-.22-.71-.33-1.19-.33-.52,0-.93.11-1.23.34-.3.23-.52.53-.65.9s-.21.77-.23,1.19c-.01.29-.01.59,0,.88.02.43.1.82.23,1.19.13.37.35.67.65.9.3.23.71.34,1.23.34Z"/>
    <path class="cls-1" d="m62.36,173.52c-.65,0-1.2-.14-1.65-.43-.45-.29-.79-.69-1.03-1.21-.23-.52-.35-1.11-.35-1.78v-4.29c0-.1.03-.18.1-.25s.15-.1.25-.1h.76c.1,0,.18.03.25.1.07.07.1.15.1.25v4.21c0,1.51.66,2.26,1.98,2.26.63,0,1.13-.2,1.51-.6.38-.4.57-.95.57-1.66v-4.21c0-.1.03-.18.1-.25.07-.07.15-.1.25-.1h.74c.11,0,.2.03.26.1s.09.15.09.25v7.2c0,.1-.03.18-.09.25s-.15.1-.26.1h-.7c-.1,0-.19-.03-.25-.1s-.1-.15-.1-.25v-.67c-.27.35-.61.64-1,.85-.39.21-.9.32-1.54.32Z"/>
    <path class="cls-1" d="m71.75,173.52c-.72,0-1.34-.14-1.86-.42-.52-.28-.92-.68-1.21-1.2s-.44-1.15-.46-1.88c-.01-.15-.02-.35-.02-.61s0-.46.02-.61c.02-.73.17-1.35.46-1.88s.69-.92,1.21-1.2c.52-.28,1.14-.42,1.86-.42.59,0,1.09.08,1.51.24s.77.37,1.04.62c.27.25.48.53.62.82.14.29.21.57.22.84.01.1-.02.18-.09.24-.07.06-.16.09-.26.09h-.73c-.1,0-.18-.02-.23-.07-.05-.05-.1-.12-.15-.24-.18-.5-.43-.85-.74-1.05-.31-.2-.7-.3-1.17-.3-.61,0-1.1.19-1.48.56s-.59.98-.62,1.81c-.01.36-.01.72,0,1.06.03.84.24,1.45.62,1.82.38.37.87.55,1.48.55.47,0,.86-.1,1.17-.3s.56-.55.74-1.05c.05-.11.1-.19.15-.24.05-.05.13-.07.23-.07h.73c.1,0,.19.03.26.09.07.06.1.14.09.24-.01.21-.06.43-.14.65-.08.22-.21.45-.39.68-.18.23-.4.43-.66.61-.26.18-.58.32-.95.43-.37.11-.79.16-1.25.16Z"/>
    <path class="cls-1" d="m79.15,173.52c-.51,0-.97-.1-1.38-.3-.42-.2-.75-.48-1-.82-.25-.34-.38-.73-.38-1.17,0-.7.28-1.26.85-1.67.57-.42,1.31-.69,2.22-.82l2.26-.32v-.44c0-.49-.14-.87-.42-1.14s-.73-.41-1.36-.41c-.46,0-.82.09-1.1.27-.28.18-.47.42-.59.7-.06.15-.17.23-.32.23h-.68c-.11,0-.2-.03-.25-.1-.06-.07-.08-.14-.08-.24,0-.15.06-.34.17-.56.12-.22.3-.44.54-.65s.55-.39.93-.54c.38-.15.84-.22,1.39-.22.61,0,1.12.08,1.53.24.41.16.74.37.98.63.24.26.41.56.52.9.11.33.16.67.16,1.02v4.92c0,.1-.03.18-.1.25s-.15.1-.25.1h-.7c-.11,0-.2-.03-.26-.1s-.09-.15-.09-.25v-.65c-.13.18-.31.36-.53.54-.22.18-.5.32-.84.44-.33.12-.75.17-1.23.17Zm.32-1.14c.41,0,.8-.09,1.14-.27.34-.18.62-.45.81-.83s.3-.85.3-1.41v-.43l-1.76.26c-.72.1-1.26.27-1.63.51s-.55.54-.55.9c0,.28.08.52.25.71.17.19.38.33.64.42s.52.14.8.14Z"/>
    <path class="cls-1" d="m88.34,173.37c-.57,0-1.03-.11-1.38-.33-.35-.22-.61-.53-.78-.93-.16-.4-.24-.87-.24-1.42v-4.01h-1.19c-.1,0-.18-.03-.25-.1-.07-.07-.1-.15-.1-.25v-.52c0-.1.03-.18.1-.25s.15-.1.25-.1h1.19v-2.54c0-.1.03-.18.1-.25.07-.07.15-.1.25-.1h.71c.1,0,.19.03.25.1.07.07.1.15.1.25v2.54h1.88c.1,0,.18.03.25.1.07.07.1.15.1.25v.52c0,.1-.03.18-.1.25-.07.07-.15.1-.25.1h-1.88v3.91c0,.48.08.85.24,1.12s.45.41.87.41h.93c.1,0,.18.03.25.1.07.07.1.15.1.25v.55c0,.1-.03.18-.1.25s-.15.1-.25.1h-1.05Z"/>
    <path class="cls-1" d="m91.43,163.99c-.1,0-.19-.03-.25-.1-.07-.07-.1-.15-.1-.25v-.82c0-.1.03-.18.1-.25s.15-.1.25-.1h.96c.1,0,.18.03.25.1s.1.15.1.25v.82c0,.1-.03.18-.1.25-.07.07-.15.1-.25.1h-.96Zm.12,9.38c-.1,0-.19-.03-.25-.1s-.1-.15-.1-.25v-7.2c0-.1.03-.18.1-.25s.15-.1.25-.1h.73c.1,0,.18.03.24.1s.09.15.09.25v7.2c0,.1-.03.18-.09.25s-.14.1-.24.1h-.73Z"/>
    <path class="cls-1" d="m98.12,173.52c-.77,0-1.41-.15-1.93-.44-.52-.29-.91-.7-1.19-1.22-.27-.52-.43-1.12-.46-1.79-.01-.17-.02-.39-.02-.66s0-.48.02-.65c.03-.68.18-1.28.46-1.79.28-.52.68-.92,1.19-1.22.52-.29,1.16-.44,1.91-.44s1.4.15,1.92.44c.52.29.91.7,1.19,1.22.28.52.43,1.11.46,1.79.01.16.02.38.02.65s0,.49-.02.66c-.03.67-.18,1.26-.46,1.79-.27.52-.67.93-1.19,1.22-.52.29-1.16.44-1.93.44Zm0-1.17c.63,0,1.13-.2,1.5-.6s.58-.99.61-1.76c.01-.15.02-.34.02-.58s0-.43-.02-.58c-.03-.77-.23-1.35-.61-1.76s-.88-.6-1.5-.6-1.13.2-1.51.6-.58.99-.6,1.76c-.01.15-.02.34-.02.58s0,.43.02.58c.02.77.22,1.36.6,1.76s.88.6,1.51.6Z"/>
    <path class="cls-1" d="m103.95,173.37c-.1,0-.18-.03-.25-.1s-.1-.15-.1-.25v-7.2c0-.1.03-.18.1-.25s.15-.1.25-.1h.71c.1,0,.18.03.25.1.07.07.1.15.1.25v.67c.26-.34.6-.63,1-.84.4-.22.91-.33,1.54-.33s1.22.14,1.68.43c.46.29.81.69,1.04,1.2.23.51.35,1.11.35,1.79v4.29c0,.1-.03.18-.09.25s-.14.1-.24.1h-.76c-.1,0-.19-.03-.25-.1s-.1-.15-.1-.25v-4.21c0-.71-.17-1.26-.52-1.66-.34-.4-.85-.6-1.52-.6-.63,0-1.13.2-1.51.6-.38.4-.57.96-.57,1.66v4.21c0,.1-.03.18-.1.25-.07.07-.15.1-.25.1h-.76Z"/>
    <path class="cls-1" d="m115.01,173.52c-.51,0-.97-.1-1.38-.3s-.75-.48-1-.82c-.25-.34-.38-.73-.38-1.17,0-.7.28-1.26.85-1.67.57-.42,1.31-.69,2.22-.82l2.26-.32v-.44c0-.49-.14-.87-.42-1.14-.28-.27-.73-.41-1.36-.41-.46,0-.82.09-1.1.27s-.47.42-.59.7c-.06.15-.17.23-.32.23h-.68c-.11,0-.2-.03-.25-.1-.06-.07-.08-.14-.08-.24,0-.15.06-.34.18-.56.12-.22.3-.44.54-.65s.55-.39.93-.54c.38-.15.84-.22,1.39-.22.61,0,1.12.08,1.53.24.42.16.74.37.98.63.24.26.41.56.52.9.11.33.16.67.16,1.02v4.92c0,.1-.03.18-.1.25s-.15.1-.25.1h-.7c-.11,0-.2-.03-.26-.1s-.09-.15-.09-.25v-.65c-.13.18-.31.36-.53.54-.22.18-.5.32-.84.44-.33.12-.74.17-1.23.17Zm.32-1.14c.42,0,.8-.09,1.14-.27.34-.18.62-.45.81-.83.2-.37.3-.85.3-1.41v-.43l-1.76.26c-.72.1-1.26.27-1.63.51s-.55.54-.55.9c0,.28.08.52.25.71.17.19.38.33.64.42.26.09.52.14.8.14Z"/>
    <path class="cls-1" d="m121.56,173.37c-.1,0-.18-.03-.25-.1-.07-.07-.1-.15-.1-.25v-10.09c0-.1.03-.18.1-.25.07-.07.15-.1.25-.1h.71c.11,0,.2.03.26.1.06.07.09.15.09.25v10.09c0,.1-.03.18-.09.25s-.15.1-.26.1h-.71Z"/>
    <path class="cls-1" d="m129.16,173.37c-.11,0-.2-.03-.26-.1s-.09-.15-.09-.25v-9.92c0-.11.03-.2.09-.27.06-.07.15-.1.26-.1h6.28c.11,0,.2.03.26.1.06.07.09.15.09.27v.58c0,.11-.03.2-.09.26s-.15.09-.26.09h-5.17v3.33h4.83c.11,0,.2.03.26.1s.09.15.09.27v.56c0,.1-.03.18-.09.25-.06.07-.15.1-.26.1h-4.83v3.45h5.29c.11,0,.2.03.26.09s.09.15.09.26v.59c0,.1-.03.18-.09.25s-.15.1-.26.1h-6.4Z"/>
    <path class="cls-1" d="m138.18,173.37c-.1,0-.19-.03-.25-.1s-.1-.15-.1-.25v-7.2c0-.1.03-.18.1-.25s.15-.1.25-.1h.71c.1,0,.18.03.25.1s.1.15.1.25v.67c.26-.34.6-.63,1-.84.4-.22.91-.33,1.54-.33.66,0,1.22.14,1.68.43.46.29.81.69,1.04,1.2.23.51.35,1.11.35,1.79v4.29c0,.1-.03.18-.09.25s-.14.1-.24.1h-.76c-.1,0-.18-.03-.25-.1s-.1-.15-.1-.25v-4.21c0-.71-.17-1.26-.52-1.66s-.85-.6-1.52-.6c-.63,0-1.13.2-1.51.6s-.57.96-.57,1.66v4.21c0,.1-.03.18-.1.25s-.15.1-.25.1h-.76Z"/>
    <path class="cls-1" d="m149.92,173.52c-.56,0-1.04-.1-1.44-.3-.41-.2-.74-.47-1-.81s-.45-.73-.58-1.16c-.13-.44-.2-.9-.22-1.38-.01-.16-.02-.31-.02-.46s0-.29.02-.46c.02-.48.09-.93.22-1.37.13-.44.32-.83.58-1.17.26-.34.59-.62,1-.81.4-.2.89-.3,1.44-.3.6,0,1.09.11,1.49.32.4.21.72.48.97.79v-3.5c0-.1.03-.18.1-.25.07-.07.15-.1.25-.1h.73c.1,0,.18.03.25.1.07.07.1.15.1.25v10.09c0,.1-.03.18-.1.25s-.15.1-.25.1h-.68c-.11,0-.2-.03-.26-.1s-.09-.15-.09-.25v-.64c-.25.32-.58.6-.99.81-.41.22-.91.33-1.52.33Zm.32-1.23c.51,0,.91-.12,1.22-.35.3-.23.53-.53.68-.89.15-.36.23-.73.24-1.1.01-.16.02-.36.02-.59s0-.42-.02-.59c-.01-.35-.09-.7-.25-1.05-.16-.34-.39-.63-.7-.85-.31-.22-.71-.33-1.19-.33-.52,0-.93.11-1.23.34-.3.23-.52.53-.65.9s-.21.77-.23,1.19c-.01.29-.01.59,0,.88.02.43.1.82.23,1.19.13.37.35.67.65.9.3.23.71.34,1.23.34Z"/>
    <path class="cls-1" d="m159.31,173.52c-.77,0-1.41-.15-1.93-.44-.52-.29-.91-.7-1.19-1.22-.27-.52-.43-1.12-.46-1.79-.01-.17-.02-.39-.02-.66s0-.48.02-.65c.03-.68.19-1.28.46-1.79.28-.52.68-.92,1.19-1.22.52-.29,1.16-.44,1.92-.44s1.4.15,1.91.44c.52.29.91.7,1.19,1.22.28.52.43,1.11.46,1.79.01.16.02.38.02.65s0,.49-.02.66c-.03.67-.18,1.26-.46,1.79-.27.52-.67.93-1.19,1.22-.52.29-1.16.44-1.93.44Zm0-1.17c.63,0,1.13-.2,1.5-.6.37-.4.58-.99.61-1.76.01-.15.02-.34.02-.58s0-.43-.02-.58c-.03-.77-.23-1.35-.61-1.76-.38-.4-.88-.6-1.5-.6s-1.13.2-1.51.6c-.38.4-.58.99-.6,1.76-.01.15-.02.34-.02.58s0,.43.02.58c.02.77.22,1.36.6,1.76.38.4.88.6,1.51.6Z"/>
    <path class="cls-1" d="m166.68,173.37c-.13,0-.23-.03-.3-.1-.07-.07-.13-.16-.18-.28l-2.16-7.05c-.02-.05-.03-.1-.03-.15,0-.09.03-.17.1-.23s.14-.09.22-.09h.67c.11,0,.2.03.26.09s.1.12.12.17l1.69,5.73,1.81-5.67c.02-.07.06-.14.13-.21.07-.07.16-.11.3-.11h.52c.13,0,.23.04.3.11.07.07.11.14.12.21l1.81,5.67,1.69-5.73c.01-.05.05-.11.11-.17s.15-.09.26-.09h.67c.09,0,.17.03.23.09s.09.14.09.23c0,.05-.01.1-.03.15l-2.16,7.05c-.03.12-.08.22-.16.28-.08.07-.18.1-.33.1h-.59c-.13,0-.24-.03-.33-.1s-.14-.16-.17-.28l-1.76-5.44-1.76,5.44c-.04.12-.1.22-.18.28-.08.07-.19.1-.33.1h-.59Z"/>
    <path class="cls-1" d="m177.12,173.37c-.1,0-.19-.03-.25-.1s-.1-.15-.1-.25v-7.2c0-.1.03-.18.1-.25s.15-.1.25-.1h.68c.1,0,.18.03.25.1.07.07.1.15.1.25v.53c.23-.31.53-.56.88-.75s.78-.28,1.28-.28c1.14-.01,1.96.46,2.43,1.4.23-.43.57-.76,1.02-1.02.45-.25.95-.38,1.52-.38.53,0,1.01.12,1.44.36s.77.61,1.02,1.1c.25.49.37,1.11.37,1.85v4.39c0,.1-.03.18-.1.25s-.15.1-.25.1h-.71c-.1,0-.19-.03-.25-.1s-.1-.15-.1-.25v-4.26c0-.57-.08-1.01-.24-1.34-.16-.32-.38-.55-.65-.68-.27-.13-.57-.2-.9-.2-.26,0-.53.07-.81.2-.27.13-.5.36-.68.68-.18.32-.27.77-.27,1.34v4.26c0,.1-.03.18-.1.25s-.15.1-.25.1h-.71c-.1,0-.18-.03-.25-.1s-.1-.15-.1-.25v-4.26c0-.57-.09-1.01-.26-1.34-.17-.32-.4-.55-.67-.68-.27-.13-.56-.2-.87-.2-.26,0-.53.07-.81.2-.27.13-.5.36-.68.68-.18.32-.27.77-.27,1.32v4.27c0,.1-.03.18-.1.25-.07.07-.15.1-.25.1h-.73Z"/>
    <path class="cls-1" d="m193.43,173.52c-1.04,0-1.87-.32-2.49-.97-.62-.64-.96-1.52-1.02-2.64-.01-.13-.02-.3-.02-.51s0-.38.02-.51c.04-.72.21-1.35.5-1.89.29-.54.7-.96,1.21-1.25.51-.29,1.11-.44,1.8-.44.77,0,1.42.16,1.94.49.52.32.92.79,1.19,1.38.27.6.41,1.3.41,2.1v.26c0,.11-.03.2-.1.26s-.15.09-.25.09h-5.26v.14c.02.42.11.8.27,1.16.16.36.39.65.7.87.3.22.67.33,1.09.33.36,0,.67-.06.91-.17s.44-.24.59-.37c.15-.14.25-.24.3-.31.09-.13.16-.21.21-.24.05-.03.13-.04.24-.04h.73c.1,0,.19.03.25.08.07.06.09.13.08.24-.01.15-.09.34-.24.55-.15.22-.37.43-.65.65s-.63.39-1.03.52c-.4.14-.87.21-1.4.21Zm-2.07-4.68h4.16v-.05c0-.46-.08-.86-.25-1.22-.17-.35-.41-.64-.72-.84-.31-.21-.69-.31-1.12-.31s-.81.1-1.12.31c-.31.21-.54.49-.71.84-.16.35-.24.76-.24,1.22v.05Z"/>
    <path class="cls-1" d="m199.15,173.37c-.1,0-.18-.03-.25-.1s-.1-.15-.1-.25v-7.2c0-.1.03-.18.1-.25s.15-.1.25-.1h.71c.1,0,.18.03.25.1.07.07.1.15.1.25v.67c.26-.34.6-.63,1-.84.4-.22.91-.33,1.54-.33s1.22.14,1.68.43c.46.29.81.69,1.04,1.2.23.51.35,1.11.35,1.79v4.29c0,.1-.03.18-.09.25s-.14.1-.24.1h-.76c-.1,0-.19-.03-.25-.1s-.1-.15-.1-.25v-4.21c0-.71-.17-1.26-.52-1.66-.34-.4-.85-.6-1.52-.6-.63,0-1.13.2-1.51.6-.38.4-.57.96-.57,1.66v4.21c0,.1-.03.18-.1.25-.07.07-.15.1-.25.1h-.76Z"/>
    <path class="cls-1" d="m210.98,173.37c-.57,0-1.03-.11-1.38-.33-.35-.22-.61-.53-.78-.93-.16-.4-.24-.87-.24-1.42v-4.01h-1.19c-.1,0-.19-.03-.25-.1-.07-.07-.1-.15-.1-.25v-.52c0-.1.03-.18.1-.25s.15-.1.25-.1h1.19v-2.54c0-.1.03-.18.1-.25.07-.07.15-.1.25-.1h.71c.1,0,.18.03.25.1.07.07.1.15.1.25v2.54h1.88c.1,0,.18.03.25.1s.1.15.1.25v.52c0,.1-.03.18-.1.25-.07.07-.15.1-.25.1h-1.88v3.91c0,.48.08.85.24,1.12.16.27.45.41.87.41h.93c.1,0,.18.03.25.1.07.07.1.15.1.25v.55c0,.1-.03.18-.1.25-.07.07-.15.1-.25.1h-1.05Z"/>
    <path class="cls-1" d="m225.3,176.88c-.73,0-1.37-.1-1.91-.3-.54-.2-.99-.47-1.35-.82-.35-.35-.62-.76-.79-1.22s-.26-.96-.26-1.49c0-.44.08-.9.23-1.39.15-.49.4-1,.74-1.51.06-.1.13-.16.21-.17.08-.02.16,0,.24.04l.5.23c.1.04.16.1.17.18.02.08-.01.18-.08.3-.25.4-.44.76-.55,1.09-.12.33-.18.7-.18,1.09,0,.48.11.91.32,1.29.21.39.55.69,1,.91.46.22,1.04.33,1.76.33h1.31c.73,0,1.32-.1,1.78-.29.46-.19.68-.5.68-.93,0-.27-.08-.49-.24-.65-.16-.16-.39-.24-.67-.24h-.76c-.21,0-.32-.11-.32-.33v-.74c0-.22.11-.33.32-.33h3.02c.15,0,.23.08.23.23v.82c0,.27-.15.41-.44.41h-.58l-.85-.81c.49.2.85.44,1.08.7.23.26.35.58.35.96,0,.32-.07.64-.2.95s-.34.59-.62.84c-.28.25-.66.46-1.12.61-.46.15-1.03.23-1.71.23h-1.34Zm-.06,2.42c-.04.05-.1.07-.17.07-.07,0-.14-.03-.2-.08l-.56-.55c-.04-.05-.06-.11-.06-.19s.02-.13.06-.17l.56-.56c.06-.06.12-.09.19-.09s.12.03.18.09l.56.56c.05.04.08.1.08.17,0,.08-.02.14-.07.21l-.58.55Zm2.1,0c-.05.05-.11.07-.17.07-.07,0-.13-.03-.19-.08l-.58-.55c-.04-.05-.06-.11-.07-.19,0-.08.02-.13.07-.17l.58-.56c.06-.06.12-.09.18-.09s.12.03.17.09l.56.56c.05.04.08.1.08.17,0,.08-.02.14-.07.21l-.56.55Z"/>
    <path class="cls-1" d="m235.44,173.51c-.23,0-.45-.02-.66-.06-.21-.04-.43-.11-.66-.2s-.5-.22-.8-.39c-.3-.17-.67-.38-1.1-.63-.19.34-.4.6-.62.77-.22.17-.44.28-.66.33-.22.05-.45.08-.67.08-.15,0-.23-.08-.23-.23v-.78c0-.3.15-.46.46-.46.17,0,.32-.03.45-.09.13-.06.26-.19.4-.38.14-.19.31-.48.52-.87.36-.7.72-1.23,1.06-1.6.34-.36.68-.62,1.01-.75.33-.14.66-.21,1-.21.37,0,.72.07,1.05.21.32.14.62.38.9.71.27.33.53.8.76,1.38.17.42.34.74.49.97.16.23.33.39.53.48.2.09.44.13.74.13.15,0,.23.08.23.23v.77c0,.3-.15.46-.46.46-.39,0-.74-.08-1.04-.24-.3-.16-.57-.44-.81-.82-.16.41-.41.7-.75.89-.34.19-.72.28-1.13.28Zm.05-1.35c.26,0,.49-.07.69-.21.2-.14.3-.4.31-.78.01-.31-.06-.61-.21-.9-.15-.28-.35-.52-.59-.7s-.5-.27-.78-.27c-.2,0-.4.05-.59.14s-.4.26-.62.52-.49.63-.81,1.14c.54.29.95.52,1.25.67s.54.26.74.31c.19.06.39.08.61.08Z"/>
    <path class="cls-1" d="m239.17,173.4c-.15,0-.23-.08-.23-.24v-.76c0-.3.15-.46.46-.46.63,0,1.07-.12,1.31-.36s.37-.68.37-1.32v-1.5c0-.22.11-.33.33-.33h.61c.22,0,.33.11.33.33v1.5c0,.44.06.78.19,1.03.13.25.33.42.62.52.29.1.68.14,1.18.14.15,0,.23.08.23.23v.77c0,.3-.15.46-.46.46-.56,0-1.06-.09-1.52-.28-.46-.19-.81-.54-1.06-1.06-.22.51-.55.86-.98,1.05s-.89.29-1.39.29Zm1.67,2.77c-.05.04-.11.06-.18.05-.07,0-.13-.03-.18-.07l-.56-.56c-.05-.05-.08-.11-.08-.18s.03-.13.08-.18l.56-.56c.05-.05.11-.08.18-.08s.13.03.19.08l.55.56c.06.05.09.11.1.18,0,.07-.02.14-.08.2l-.56.56Zm2.08,0s-.1.06-.17.05c-.07,0-.13-.03-.18-.07l-.58-.56c-.05-.05-.08-.11-.08-.18s.03-.13.08-.18l.58-.56c.05-.05.11-.08.17-.08s.12.03.16.08l.56.56c.06.05.09.11.1.18,0,.07-.02.14-.08.2l-.56.56Z"/>
    <path class="cls-1" d="m244.13,173.4c-.15,0-.23-.08-.23-.24v-.76c0-.3.15-.46.46-.46.59,0,1-.12,1.22-.36s.34-.7.34-1.37v-7.9c0-.22.11-.33.32-.33h.59c.22,0,.33.11.33.33v7.9c0,.47.06.82.18,1.07.12.25.31.42.58.52.27.1.64.14,1.1.14.15,0,.23.08.23.23v.77c0,.3-.15.46-.46.46-.46,0-.89-.09-1.31-.28s-.76-.54-1.03-1.06c-.23.53-.55.88-.97,1.06-.41.18-.86.27-1.36.27Z"/>
    <path class="cls-1" d="m248.78,173.4c-.06,0-.11-.02-.15-.05-.04-.04-.06-.11-.06-.24v-.82c0-.14.04-.24.12-.28.08-.05.19-.07.32-.07.59-.01,1.07-.03,1.46-.06.39-.03.72-.08,1-.14.28-.07.56-.14.82-.24l-1.84-1.55c-.14-.13-.23-.25-.27-.36-.04-.11-.06-.25-.06-.41v-.47c0-.2.04-.35.12-.45.08-.1.19-.18.33-.25.45-.24.93-.42,1.44-.52.52-.1,1.03-.15,1.53-.15,1.04,0,1.82.17,2.34.51.52.34.78.77.78,1.3,0,.31-.08.61-.24.87-.16.27-.39.52-.69.77s-.64.5-1.03.78c.27.14.58.24.91.3.33.06.65.08.96.08h1.41c.15,0,.23.08.23.23v.77c0,.3-.15.46-.46.46h-.56c-.52,0-.96-.02-1.33-.05-.37-.03-.69-.08-.97-.16-.28-.08-.54-.17-.78-.3s-.49-.27-.75-.46c-.27.15-.54.29-.8.41-.26.12-.55.22-.87.3-.32.08-.71.14-1.19.18s-1.05.06-1.74.06Zm4.79-2.28c.53-.31.97-.62,1.31-.9.35-.29.52-.55.52-.78,0-.15-.06-.29-.19-.41s-.33-.22-.61-.3c-.28-.08-.65-.11-1.1-.11-.35,0-.72.04-1.11.11-.38.08-.79.2-1.2.39l2.37,2.01Z"/>
    <path class="cls-1" d="m257.79,173.4c-.09,0-.16-.03-.2-.09-.04-.06-.06-.13-.06-.2v-.84c0-.14.04-.23.12-.27.08-.04.19-.06.33-.06h.18c.5,0,.85-.13,1.06-.4.21-.26.31-.66.31-1.19,0-.18,0-.35-.02-.51-.02-.16-.05-.33-.1-.51l-.26-1.16c-.03-.11-.02-.2.03-.26s.13-.11.24-.14l.55-.12c.23-.05.37.04.43.27l.27,1.34c.05.2.09.44.11.7s.04.46.04.59c0,.85-.2,1.54-.6,2.05-.4.52-1,.77-1.79.77h-.65Zm.84-7.02c-.05.05-.11.08-.18.08s-.14-.03-.2-.09l-.55-.56c-.05-.06-.08-.12-.08-.19s.03-.13.08-.19l.55-.56c.06-.06.13-.09.2-.09s.13.03.18.09l.56.56c.06.05.09.11.1.19,0,.08-.02.14-.08.21l-.58.56Zm2.26,0c-.05.06-.11.09-.18.08-.07-.01-.14-.04-.2-.09l-.58-.56c-.05-.05-.08-.11-.08-.19s.03-.14.08-.19l.58-.56c.06-.06.12-.09.18-.09s.12.03.18.09l.56.56c.06.05.09.11.09.19s-.03.14-.09.21l-.55.56Z"/>
    <path class="cls-1" d="m270.62,173.4c-.65,0-1.22-.07-1.72-.2s-.92-.33-1.26-.59c-.34-.26-.61-.57-.78-.95-.18-.37-.27-.8-.27-1.28,0-.31.05-.65.14-1.01.09-.36.22-.73.4-1.12.06-.14.13-.24.21-.3.08-.06.17-.06.28,0l.52.18c.08.03.15.07.21.11s.07.12.02.24c-.29.65-.44,1.2-.44,1.64,0,.63.25,1.09.75,1.38.5.29,1.21.43,2.13.43h3.18c.52,0,1-.02,1.44-.05.45-.04.8-.08,1.05-.14-.28-.22-.55-.53-.79-.91s-.37-.83-.38-1.34c0-.54.12-1.01.37-1.41s.58-.71,1-.93c.42-.22.87-.33,1.35-.33s.91.11,1.29.33c.39.22.69.53.92.91.23.39.34.83.34,1.32,0,.45-.11.86-.32,1.24-.21.38-.56.75-1.03,1.1.28.06.56.1.84.13.27.03.58.04.93.05.34.01.76.02,1.26.02.07,0,.13.02.17.07.05.05.07.1.07.17v.73c0,.32-.16.49-.49.49-.53,0-.99-.01-1.4-.04-.41-.03-.77-.06-1.1-.11-.33-.05-.64-.12-.92-.21-.28-.09-.56-.2-.84-.34-.3.13-.59.24-.86.33s-.54.16-.83.22c-.28.06-.61.09-.96.11-.36.02-.79.03-1.3.03h-3.18Zm7.28-2.05c.5-.24.86-.53,1.1-.86.24-.33.36-.65.36-.96,0-.42-.12-.75-.37-1-.25-.25-.6-.38-1.04-.38-.37,0-.7.12-.99.36-.28.24-.43.56-.43.97s.11.75.33,1.05c.22.29.57.57,1.03.84Zm.3-6.19c-.05.05-.11.07-.18.07-.07,0-.14-.03-.2-.08l-.58-.58c-.05-.06-.08-.13-.08-.2s.03-.13.08-.18l.58-.58c.06-.05.12-.08.19-.08.07,0,.12.02.17.08l.58.58c.14.14.15.27.02.4l-.58.58Z"/>
    <path class="cls-1" d="m282.17,173.4c-.14,0-.24-.03-.29-.08-.05-.06-.07-.12-.07-.19,0-.07,0-.13,0-.18v-.62c0-.16.02-.27.06-.31.04-.05.14-.07.29-.07h3.39c.57,0,1.01-.09,1.33-.27s.54-.49.65-.93c.12-.44.15-1.05.1-1.82l.29.32c-.23.32-.55.56-.95.71-.4.15-.8.23-1.21.23-.5,0-.93-.1-1.3-.3-.37-.2-.65-.48-.84-.84-.19-.36-.29-.78-.29-1.25.01-.51.14-.96.38-1.35s.56-.7.96-.93c.4-.22.82-.33,1.26-.33.62,0,1.14.16,1.56.48.42.32.74.76.96,1.33s.33,1.22.33,1.96c0,.66-.05,1.26-.14,1.81-.1.55-.27,1.02-.52,1.41-.25.4-.61.7-1.07.91-.46.21-1.05.32-1.77.32h-3.12Zm2.83-9.88c-.05.05-.11.08-.18.08s-.14-.03-.2-.09l-.55-.56c-.05-.06-.08-.12-.08-.19s.03-.13.08-.19l.55-.56c.06-.06.13-.09.2-.09s.13.03.18.09l.56.56c.06.05.09.11.1.19,0,.08-.02.14-.08.2l-.58.56Zm.82,5.36c.3,0,.62-.05.95-.16.33-.11.62-.26.86-.46-.03-.27-.12-.55-.26-.84-.14-.28-.34-.52-.6-.71s-.58-.29-.96-.29c-.29,0-.54.07-.75.2-.21.13-.36.3-.47.5-.11.2-.16.4-.16.58,0,.4.14.69.42.89.28.2.61.3.98.3Zm1.44-5.36c-.05.06-.11.09-.18.08-.07-.01-.14-.04-.2-.09l-.58-.56c-.05-.05-.08-.11-.08-.19s.03-.14.08-.19l.58-.56c.06-.06.12-.09.18-.09s.12.03.18.09l.56.56c.06.05.09.11.09.19s-.03.14-.09.2l-.55.56Z"/>
    <path class="cls-1" d="m290.24,177.11c-.13,0-.23-.03-.3-.09s-.11-.16-.11-.3v-.67c0-.12.04-.21.11-.27.07-.06.18-.08.33-.08h.76c.88,0,1.59-.16,2.13-.47.54-.31.92-.8,1.16-1.45.24-.65.34-1.49.3-2.5l1.11.03c0,1.28-.16,2.35-.49,3.21-.32.87-.84,1.51-1.54,1.94-.7.43-1.63.65-2.77.65h-.68Zm4.33-5.82c-.02-.65-.18-1.17-.49-1.55s-.7-.58-1.2-.58c-.34,0-.63.07-.85.21-.22.14-.39.31-.49.52s-.16.43-.16.65c0,.36.13.65.39.86.26.21.6.31,1,.31.45,0,.85-.07,1.2-.21.35-.14.59-.3.71-.47l.15,1.2c-.2.25-.49.46-.87.62-.38.16-.81.23-1.29.22-.52-.01-.95-.13-1.31-.36-.35-.23-.62-.52-.81-.88-.18-.36-.27-.75-.27-1.18,0-.39.06-.75.18-1.09.12-.34.29-.65.52-.9.23-.26.51-.46.84-.61.33-.15.7-.22,1.12-.22.53,0,1,.14,1.41.42s.74.68.99,1.19.36,1.14.36,1.87l-1.16-.02Z"/>
  </g>
  <g>
    <path class="cls-1" d="m42.11,153.85c-.15,0-.28-.05-.38-.15-.1-.1-.15-.22-.15-.38v-14.92c0-.17.05-.3.15-.4.1-.1.22-.15.38-.15h1.14c.18,0,.32.05.41.14s.14.17.16.23l4.85,9.23,4.87-9.23c.03-.06.09-.14.17-.23s.22-.14.4-.14h1.12c.17,0,.3.05.4.15.1.1.15.23.15.4v14.92c0,.15-.05.28-.15.38-.1.1-.23.15-.4.15h-1.12c-.15,0-.28-.05-.38-.15-.1-.1-.15-.22-.15-.38v-11.25l-3.82,7.45c-.06.15-.15.27-.27.35-.12.08-.27.13-.46.13h-.71c-.2,0-.35-.04-.47-.13s-.21-.2-.29-.35l-3.82-7.45v11.25c0,.15-.05.28-.15.38-.1.1-.23.15-.38.15h-1.12Z"/>
    <path class="cls-1" d="m65.47,154.08c-1.3,0-2.41-.22-3.34-.67-.93-.45-1.65-1.14-2.15-2.08-.5-.94-.78-2.11-.85-3.53-.02-.67-.02-1.31-.02-1.93s0-1.26.02-1.93c.06-1.4.35-2.57.88-3.51.53-.94,1.26-1.64,2.19-2.1.94-.46,2.02-.7,3.26-.7s2.34.23,3.28.7c.94.46,1.67,1.17,2.21,2.1.53.94.82,2.11.87,3.51.03.67.05,1.31.05,1.93s-.02,1.26-.05,1.93c-.05,1.42-.32,2.59-.83,3.53-.51.94-1.23,1.63-2.16,2.08-.93.45-2.05.67-3.36.67Zm0-1.94c1.17,0,2.13-.35,2.87-1.05.74-.7,1.14-1.84,1.2-3.41.03-.69.05-1.3.05-1.84s-.02-1.15-.05-1.82c-.03-1.05-.23-1.9-.58-2.56-.36-.65-.83-1.13-1.43-1.44s-1.28-.46-2.06-.46-1.42.15-2.01.46-1.07.78-1.43,1.44c-.36.66-.56,1.51-.61,2.56-.02.67-.02,1.28-.02,1.82s0,1.15.02,1.84c.06,1.57.46,2.7,1.21,3.41.75.7,1.69,1.05,2.83,1.05Z"/>
    <path class="cls-1" d="m78.89,153.85c-.15,0-.28-.05-.38-.15-.1-.1-.15-.22-.15-.38v-13.44h-4.39c-.15,0-.28-.05-.38-.15-.1-.1-.15-.22-.15-.38v-.96c0-.17.05-.3.15-.4.1-.1.22-.15.38-.15h11.02c.17,0,.3.05.4.15.1.1.15.23.15.4v.96c0,.15-.05.28-.15.38-.1.1-.23.15-.4.15h-4.37v13.44c0,.15-.05.28-.15.38-.1.1-.23.15-.4.15h-1.19Z"/>
    <path class="cls-1" d="m88.62,153.85c-.17,0-.3-.05-.39-.15-.09-.1-.14-.22-.14-.38v-14.92c0-.17.05-.3.14-.4.09-.1.22-.15.39-.15h1.17c.17,0,.3.05.4.15.1.1.15.23.15.4v6.31h7.86v-6.31c0-.17.05-.3.15-.4.1-.1.22-.15.38-.15h1.17c.17,0,.3.05.4.15.1.1.15.23.15.4v14.92c0,.15-.05.28-.15.38s-.23.15-.4.15h-1.17c-.15,0-.28-.05-.38-.15-.1-.1-.15-.22-.15-.38v-6.56h-7.86v6.56c0,.15-.05.28-.15.38-.1.1-.23.15-.4.15h-1.17Z"/>
    <path class="cls-1" d="m104.92,153.85c-.17,0-.3-.05-.39-.15-.09-.1-.14-.22-.14-.38v-14.92c0-.17.05-.3.14-.4.09-.1.22-.15.39-.15h9.44c.17,0,.3.05.39.15.09.1.14.23.14.4v.87c0,.17-.05.3-.14.39-.09.09-.22.14-.39.14h-7.77v5.01h7.27c.17,0,.3.05.39.15.09.1.14.23.14.4v.85c0,.15-.05.28-.14.38-.09.1-.22.15-.39.15h-7.27v5.19h7.95c.17,0,.3.05.39.14.09.09.14.22.14.39v.89c0,.15-.05.28-.14.38s-.22.15-.39.15h-9.62Z"/>
    <path class="cls-1" d="m118.77,153.85c-.17,0-.3-.05-.39-.15s-.14-.22-.14-.38v-14.92c0-.17.05-.3.14-.4.09-.1.22-.15.39-.15h5.58c1.72,0,3.09.4,4.09,1.21,1.01.81,1.51,2,1.51,3.59,0,1.17-.29,2.13-.88,2.87-.59.74-1.38,1.25-2.39,1.54l3.52,6.08c.05.09.07.18.07.25,0,.12-.05.23-.15.32-.1.09-.21.14-.33.14h-1.1c-.26,0-.45-.07-.57-.21-.12-.14-.23-.27-.32-.41l-3.31-5.81h-4v5.9c0,.15-.05.28-.15.38s-.23.15-.4.15h-1.17Zm1.71-8.37h3.77c1.14,0,2-.24,2.56-.72s.85-1.19.85-2.14-.28-1.64-.83-2.13c-.56-.49-1.41-.73-2.57-.73h-3.77v5.71Z"/>
    <path class="cls-1" d="m138.36,154.08c-1.33,0-2.44-.2-3.34-.61-.9-.4-1.59-.93-2.07-1.58-.48-.65-.74-1.34-.77-2.07,0-.12.05-.23.15-.33.1-.1.22-.15.35-.15h1.17c.18,0,.32.05.41.14s.15.2.18.32c.08.37.26.73.56,1.09.3.36.72.66,1.26.89.54.24,1.24.35,2.09.35,1.31,0,2.27-.23,2.89-.7.62-.46.93-1.09.93-1.86,0-.53-.16-.96-.49-1.29-.33-.33-.83-.62-1.5-.88-.67-.26-1.54-.54-2.61-.85-1.11-.32-2.03-.67-2.77-1.05-.73-.38-1.28-.85-1.63-1.42-.36-.56-.54-1.28-.54-2.15,0-.82.22-1.56.66-2.21s1.08-1.16,1.91-1.54c.83-.38,1.84-.57,3.03-.57.94,0,1.77.13,2.48.38.71.25,1.3.59,1.77,1.01.47.42.83.87,1.07,1.35.24.48.37.95.39,1.41,0,.11-.04.21-.11.31-.08.1-.2.15-.37.15h-1.21c-.11,0-.22-.03-.33-.09-.11-.06-.2-.17-.26-.34-.09-.62-.44-1.15-1.05-1.58-.61-.43-1.4-.64-2.38-.64s-1.79.19-2.41.57c-.62.38-.93.98-.93,1.78,0,.52.14.95.43,1.29s.75.64,1.37.9c.62.26,1.44.53,2.45.82,1.22.34,2.22.69,2.99,1.06.78.37,1.35.84,1.73,1.39.37.56.56,1.27.56,2.14,0,.96-.25,1.78-.75,2.46s-1.21,1.2-2.11,1.55c-.91.36-1.98.54-3.21.54Z"/>
    <path class="cls-1" d="m147.57,142.68c-.15,0-.26-.05-.33-.15-.07-.1-.11-.22-.13-.35l-.39-4.02c-.02-.17.02-.3.1-.39s.2-.14.35-.14h1.49c.15,0,.27.05.37.14s.13.22.11.39l-.39,4.02c-.02.14-.06.26-.14.35-.08.1-.19.15-.34.15h-.71Z"/>
    <path class="cls-1" d="m158.54,153.85c-.17,0-.3-.05-.39-.15-.09-.1-.14-.22-.14-.38v-14.92c0-.17.05-.3.14-.4.09-.1.22-.15.39-.15h9.44c.17,0,.3.05.39.15.09.1.14.23.14.4v.87c0,.17-.05.3-.14.39-.09.09-.22.14-.39.14h-7.77v5.01h7.27c.17,0,.3.05.39.15.09.1.14.23.14.4v.85c0,.15-.05.28-.14.38-.09.1-.22.15-.39.15h-7.27v5.19h7.95c.17,0,.3.05.39.14.09.09.14.22.14.39v.89c0,.15-.05.28-.14.38s-.22.15-.39.15h-9.62Z"/>
    <path class="cls-1" d="m172.39,153.85c-.17,0-.3-.05-.39-.15s-.14-.22-.14-.38v-14.92c0-.17.05-.3.14-.4.09-.1.22-.15.39-.15h1.05c.18,0,.32.04.41.13.09.08.15.15.16.19l7.59,11.66v-11.43c0-.17.05-.3.14-.4.09-.1.22-.15.39-.15h1.1c.17,0,.3.05.4.15.1.1.15.23.15.4v14.9c0,.15-.05.28-.15.39-.1.11-.23.16-.38.16h-1.1c-.17,0-.29-.05-.38-.14-.08-.09-.14-.15-.17-.18l-7.57-11.54v11.34c0,.15-.05.28-.15.38-.1.1-.23.15-.4.15h-1.1Z"/>
    <path class="cls-1" d="m188.25,153.85c-.17,0-.3-.05-.39-.15s-.14-.22-.14-.38v-14.92c0-.17.05-.3.14-.4.09-.1.22-.15.39-.15h5.19c1.57,0,2.83.24,3.79.71.96.47,1.66,1.17,2.1,2.09.44.92.67,2.05.69,3.39.02.69.02,1.29.02,1.81s0,1.11-.02,1.78c-.03,1.4-.26,2.56-.7,3.49-.43.92-1.12,1.61-2.06,2.06-.94.45-2.18.67-3.71.67h-5.3Zm1.71-1.94h3.47c1.05,0,1.89-.14,2.51-.43.62-.29,1.08-.75,1.36-1.39.28-.64.43-1.49.45-2.54.03-.46.05-.86.05-1.2v-1.03c0-.34-.02-.73-.05-1.18-.03-1.48-.38-2.57-1.05-3.28-.67-.71-1.8-1.06-3.38-1.06h-3.36v12.11Z"/>
    <path class="cls-1" d="m209.21,154.08c-1.3,0-2.41-.22-3.34-.67-.93-.45-1.65-1.14-2.15-2.08-.5-.94-.78-2.11-.85-3.53-.02-.67-.02-1.31-.02-1.93s0-1.26.02-1.93c.06-1.4.35-2.57.88-3.51.53-.94,1.26-1.64,2.19-2.1.94-.46,2.02-.7,3.26-.7s2.34.23,3.28.7c.94.46,1.67,1.17,2.21,2.1.53.94.82,2.11.87,3.51.03.67.05,1.31.05,1.93s-.02,1.26-.05,1.93c-.05,1.42-.32,2.59-.83,3.53-.51.94-1.23,1.63-2.16,2.08-.93.45-2.05.67-3.36.67Zm0-1.94c1.17,0,2.13-.35,2.87-1.05.74-.7,1.14-1.84,1.2-3.41.03-.69.05-1.3.05-1.84s-.02-1.15-.05-1.82c-.03-1.05-.23-1.9-.58-2.56-.36-.65-.83-1.13-1.43-1.44s-1.28-.46-2.06-.46-1.42.15-2.01.46-1.07.78-1.43,1.44c-.36.66-.56,1.51-.61,2.56-.02.67-.02,1.28-.02,1.82s0,1.15.02,1.84c.06,1.57.46,2.7,1.21,3.41.75.7,1.69,1.05,2.83,1.05Z"/>
    <path class="cls-1" d="m221.44,153.85c-.2,0-.35-.05-.47-.16-.11-.11-.19-.26-.24-.46l-2.95-14.67c-.02-.06-.02-.11-.02-.16v-.09c0-.12.05-.23.14-.32s.2-.14.32-.14h1.19c.32,0,.5.13.55.39l2.33,11.79,2.47-8.09c.05-.14.13-.26.24-.38s.28-.17.49-.17h.85c.23,0,.4.06.5.17s.17.24.21.38l2.49,8.09,2.31-11.79c.05-.26.24-.39.57-.39h1.19c.12,0,.23.05.32.14s.14.2.14.32c0,.02,0,.05-.01.09,0,.05-.01.1-.01.16l-2.95,14.67c-.05.2-.13.35-.24.46-.11.11-.27.16-.47.16h-.89c-.21,0-.38-.05-.5-.16-.12-.11-.21-.24-.25-.41l-2.83-8.71-2.81,8.71c-.06.17-.15.31-.26.41s-.28.16-.49.16h-.89Z"/>
    <path class="cls-1" d="m237.58,153.85c-.15,0-.28-.05-.38-.15-.1-.1-.15-.22-.15-.38v-14.92c0-.17.05-.3.15-.4.1-.1.22-.15.38-.15h1.14c.18,0,.32.05.41.14s.15.17.16.23l4.85,9.23,4.87-9.23c.03-.06.09-.14.17-.23s.22-.14.4-.14h1.12c.17,0,.3.05.4.15.1.1.15.23.15.4v14.92c0,.15-.05.28-.15.38-.1.1-.23.15-.4.15h-1.12c-.15,0-.28-.05-.38-.15-.1-.1-.15-.22-.15-.38v-11.25l-3.82,7.45c-.06.15-.15.27-.27.35-.12.08-.27.13-.46.13h-.71c-.2,0-.35-.04-.47-.13-.11-.08-.21-.2-.29-.35l-3.82-7.45v11.25c0,.15-.05.28-.15.38-.1.1-.22.15-.38.15h-1.12Z"/>
    <path class="cls-1" d="m255.72,153.85c-.17,0-.3-.05-.39-.15-.09-.1-.14-.22-.14-.38v-14.92c0-.17.05-.3.14-.4.09-.1.22-.15.39-.15h9.44c.17,0,.3.05.39.15.09.1.14.23.14.4v.87c0,.17-.05.3-.14.39-.09.09-.22.14-.39.14h-7.77v5.01h7.27c.17,0,.3.05.39.15.09.1.14.23.14.4v.85c0,.15-.05.28-.14.38-.09.1-.22.15-.39.15h-7.27v5.19h7.95c.17,0,.3.05.39.14.09.09.14.22.14.39v.89c0,.15-.05.28-.14.38s-.22.15-.39.15h-9.62Z"/>
    <path class="cls-1" d="m269.57,153.85c-.17,0-.3-.05-.39-.15-.09-.1-.14-.22-.14-.38v-14.92c0-.17.05-.3.14-.4.09-.1.22-.15.39-.15h1.05c.18,0,.32.04.41.13.09.08.14.15.16.19l7.59,11.66v-11.43c0-.17.05-.3.14-.4.09-.1.22-.15.39-.15h1.1c.17,0,.3.05.4.15.1.1.15.23.15.4v14.9c0,.15-.05.28-.15.39-.1.11-.23.16-.38.16h-1.1c-.17,0-.29-.05-.38-.14-.08-.09-.14-.15-.17-.18l-7.57-11.54v11.34c0,.15-.05.28-.15.38-.1.1-.23.15-.4.15h-1.1Z"/>
    <path class="cls-1" d="m288.93,153.85c-.15,0-.28-.05-.38-.15-.1-.1-.15-.22-.15-.38v-13.44h-4.39c-.15,0-.28-.05-.38-.15-.1-.1-.15-.22-.15-.38v-.96c0-.17.05-.3.15-.4.1-.1.22-.15.38-.15h11.02c.17,0,.3.05.4.15.1.1.15.23.15.4v.96c0,.15-.05.28-.15.38-.1.1-.23.15-.4.15h-4.37v13.44c0,.15-.05.28-.15.38-.1.1-.23.15-.4.15h-1.19Z"/>
  </g>
</svg>