<svg xmlns="http://www.w3.org/2000/svg" id="Layer_1" data-name="Layer 1" viewBox="0 0 419.4 270.28">
  <defs>
    <style>
      .cls-1 {
        fill: #5c348b;
      }

      .cls-1, .cls-2 {
        stroke-width: 0px;
      }

      .cls-2 {
        fill: #2e1e51;
      }
    </style>
  </defs>
  <g>
    <g>
      <g id="Mothers_Day_Arabic" data-name="Mothers Day Arabic">
        <g id="Mothers_Fay_Arabic" data-name="Mothers Fay Arabic">
          <g>
            <path class="cls-1" d="m188.9,53.9c-.04-7.54,3.12-20.17,9.52-37.85.86-2.42,1.66-3.67,2.4-3.77.42-.02.69.42.78,1.3.07.69.04,1.53-.11,2.52-.69,5.2-.95,16.5-.79,33.88.14,24.75.18,38.89.11,42.38-.25,17.05-3.58,31.41-10,43.08-.62,1.13-1.09,1.83-1.45,2.1-.39.3-.65.18-.79-.39-.09-.46-.05-1.27.12-2.42.97-6.24,1.3-16.83,1-31.78-.21-16.34-.48-32.7-.79-49.06Z"/>
            <path class="cls-1" d="m167.38,112.94c-9.09,34.66-29.05,33.04-38.11,32.37-10.14-.74-15.92-16.21-14.15-20.63.38-.96,10.05.04,10.23-.41,1.93-4.52,3.05-9.73,3.62-12.8,1.06-5.32,1.73-12.41,2.03-21.26.25-6.21.02-13.64-.72-22.35-.86-10.12-1.3-16.18-1.34-18.16-.04-1.97.88-6.47,2.75-13.49,1.9-7.3,3.91-13.71,6.05-19.21,1.09-2.86,2.03-4.35,2.8-4.48.49-.05.81.51.99,1.71.14.93.14,2.13.04,3.61.26,16.38-.02,38.99-.86,67.85-1.52,18.35-4.6,31.64-10.54,38.87.07-.08,4.99-.15,7.47-.52,6.38-.88,12.08-3.32,17.1-8.5,4.65-4.83,7.42-10.08,8.3-15.72.72-4.6.79-14.51.19-29.72-.32-8.96-.69-17.95-1.09-26.94.04-2.82,1.15-8.14,3.33-15.95,2.06-7.39,4.11-13.57,6.13-18.58.99-2.29,1.87-3.49,2.64-3.63.56-.05.92.46,1.06,1.53.11.67.11,1.57,0,2.68-.49,4.79-.92,22.35-1.23,52.69-.28,21.33-2.52,38.34-6.68,51.03Z"/>
          </g>
        </g>
      </g>
      <g>
        <path class="cls-1" d="m249.37,139.73c-2.99,0-5.62-.3-7.91-.91-2.29-.61-4.22-1.5-5.81-2.69s-2.79-2.65-3.6-4.37c-.82-1.73-1.22-3.69-1.22-5.88,0-1.45.21-3,.63-4.65.42-1.66,1.03-3.37,1.82-5.14.28-.65.59-1.11.94-1.36.35-.26.78-.27,1.29-.03l2.38.84c.37.14.7.3.98.49.28.19.3.56.07,1.12-1.35,2.99-2.03,5.51-2.03,7.56,0,2.89,1.16,5,3.46,6.33,2.31,1.33,5.59,1.99,9.83,1.99h14.63c2.38,0,4.59-.08,6.65-.24,2.05-.16,3.66-.39,4.83-.67-1.31-1.03-2.52-2.43-3.64-4.2-1.12-1.77-1.7-3.83-1.75-6.16,0-2.47.57-4.63,1.71-6.47,1.14-1.84,2.67-3.27,4.58-4.27,1.91-1,3.99-1.5,6.23-1.5s4.18.51,5.95,1.54c1.77,1.03,3.18,2.43,4.23,4.2,1.05,1.77,1.58,3.8,1.58,6.09,0,2.05-.49,3.95-1.47,5.7-.98,1.75-2.57,3.44-4.76,5.07,1.31.28,2.59.48,3.85.59,1.26.12,2.68.2,4.27.25,1.58.05,3.52.07,5.81.07.33,0,.59.1.8.31s.32.48.32.81v3.36c0,1.49-.75,2.24-2.24,2.24-2.43,0-4.57-.06-6.44-.18-1.87-.12-3.56-.29-5.07-.52-1.52-.23-2.93-.55-4.23-.94-1.31-.4-2.59-.92-3.85-1.57-1.4.61-2.72,1.12-3.95,1.54s-2.51.76-3.81,1.01c-1.31.26-2.79.43-4.44.52s-3.65.14-5.98.14h-14.63Zm33.52-9.45c2.29-1.12,3.98-2.44,5.07-3.95,1.1-1.52,1.64-3,1.64-4.44,0-1.91-.57-3.45-1.71-4.62-1.14-1.17-2.74-1.75-4.79-1.75-1.73,0-3.24.55-4.55,1.64-1.31,1.1-1.96,2.58-1.96,4.44s.51,3.48,1.54,4.83c1.03,1.35,2.61,2.64,4.76,3.85Zm1.4-28.48c-.23.23-.51.34-.84.31-.33-.02-.63-.15-.91-.38l-2.66-2.66c-.23-.28-.35-.58-.35-.91s.12-.61.35-.84l2.66-2.66c.28-.23.57-.36.88-.39.3-.02.57.1.8.39l2.66,2.66c.65.65.68,1.26.07,1.82l-2.66,2.66Z"/>
        <path class="cls-1" d="m302.49,139.73c-.61,0-1.03-.1-1.26-.31-.23-.21-.35-.52-.35-.94v-3.92c0-.65.19-1.07.56-1.26.37-.19.89-.28,1.54-.28h19.32c.7,0,1.05.35,1.05,1.05v4.13c0,.65-.19,1.07-.56,1.26-.37.19-.89.28-1.54.28h-18.76Z"/>
        <path class="cls-1" d="m321.81,139.73c-.61,0-1.03-.1-1.26-.31-.23-.21-.35-.52-.35-.94v-3.92c0-.65.19-1.07.56-1.26.37-.19.89-.28,1.54-.28h19.32c.7,0,1.05.35,1.05,1.05v4.13c0,.65-.19,1.07-.56,1.26-.37.19-.89.28-1.54.28h-18.76Z"/>
        <path class="cls-1" d="m341.2,139.73c-.65,0-1.1-.13-1.33-.39s-.34-.55-.32-.87c.02-.33.04-.61.04-.84v-2.87c0-.75.09-1.23.28-1.44s.63-.31,1.33-.31h15.61c2.61,0,4.65-.42,6.12-1.26s2.47-2.27,3.01-4.3c.54-2.03.69-4.82.46-8.36l1.33,1.47c-1.07,1.49-2.53,2.59-4.37,3.29-1.84.7-3.7,1.05-5.56,1.05-2.29,0-4.28-.46-5.98-1.36-1.7-.91-3-2.19-3.88-3.85-.89-1.66-1.33-3.58-1.33-5.77.05-2.33.63-4.41,1.75-6.23,1.12-1.82,2.59-3.24,4.41-4.27,1.82-1.03,3.75-1.54,5.81-1.54,2.85,0,5.24.73,7.17,2.2,1.94,1.47,3.42,3.51,4.44,6.12,1.03,2.61,1.54,5.62,1.54,9.03,0,3.03-.22,5.81-.66,8.33-.44,2.52-1.25,4.69-2.42,6.51-1.17,1.82-2.81,3.22-4.93,4.2-2.12.98-4.84,1.47-8.15,1.47h-14.35Zm13.02-45.49c-.23.23-.51.35-.84.35s-.63-.14-.91-.42l-2.52-2.59c-.23-.28-.35-.57-.35-.88s.12-.59.35-.87l2.52-2.59c.28-.28.58-.42.91-.42s.61.14.84.42l2.59,2.59c.28.23.43.52.46.87.02.35-.1.67-.38.94l-2.66,2.59Zm3.78,24.71c1.4,0,2.86-.25,4.37-.73,1.52-.49,2.83-1.2,3.95-2.13-.14-1.26-.54-2.54-1.19-3.85-.65-1.31-1.58-2.4-2.76-3.29-1.19-.89-2.67-1.33-4.44-1.33-1.35,0-2.51.3-3.46.91-.96.61-1.68,1.38-2.17,2.31-.49.93-.74,1.82-.74,2.66,0,1.82.64,3.18,1.92,4.09,1.28.91,2.79,1.36,4.51,1.36Zm6.65-24.71c-.23.28-.51.4-.84.35-.33-.05-.63-.19-.91-.42l-2.66-2.59c-.23-.23-.35-.52-.35-.88s.12-.64.35-.87l2.66-2.59c.28-.28.56-.42.84-.42s.56.14.84.42l2.59,2.59c.28.23.42.52.42.87s-.14.67-.42.94l-2.52,2.59Z"/>
        <path class="cls-1" d="m379.76,156.81c-.61,0-1.07-.14-1.4-.42-.33-.28-.49-.75-.49-1.4v-3.08c0-.56.16-.97.49-1.22.33-.26.84-.39,1.54-.39h3.5c4.06,0,7.33-.72,9.8-2.17,2.47-1.45,4.26-3.67,5.35-6.68,1.1-3.01,1.55-6.85,1.37-11.51l5.11.14c0,5.88-.75,10.81-2.24,14.8-1.49,3.99-3.86,6.97-7.1,8.96-3.24,1.98-7.5,2.97-12.77,2.97h-3.15Zm19.95-26.81c-.09-2.99-.84-5.36-2.24-7.14-1.4-1.77-3.24-2.66-5.53-2.66-1.59,0-2.89.31-3.92.94s-1.78,1.44-2.27,2.41c-.49.98-.74,1.98-.74,3.01,0,1.68.61,3,1.82,3.95,1.21.96,2.75,1.43,4.62,1.43,2.05,0,3.9-.33,5.53-.98,1.63-.65,2.73-1.38,3.29-2.17l.7,5.53c-.93,1.17-2.26,2.11-3.99,2.83-1.73.72-3.71,1.06-5.95,1.01-2.38-.05-4.39-.59-6.02-1.64-1.63-1.05-2.87-2.4-3.71-4.06-.84-1.66-1.26-3.46-1.26-5.42,0-1.77.27-3.45.8-5.04.54-1.59,1.34-2.97,2.42-4.16,1.07-1.19,2.37-2.12,3.88-2.8,1.52-.68,3.23-1.01,5.14-1.01,2.43,0,4.59.64,6.51,1.92,1.91,1.28,3.43,3.11,4.55,5.49,1.12,2.38,1.68,5.25,1.68,8.61l-5.32-.07Z"/>
      </g>
    </g>
    <g id="_3Nwx3j" data-name="3Nwx3j">
      <path class="cls-1" d="m122.28,22.11c-.3,1-.6,1.99-.89,3-.09.33-.26.61-.54.8-.41.27-.83.53-1.26.79-1.03.61-2.07,1.2-3.1,1.82-.27.16-.53.37-.76.59-.35.33-.36.56-.09.96.37.54.88.91,1.44,1.21.96.52,1.94,1,2.91,1.5.64.34,1.25.73,1.78,1.23.9.86,1.22,1.9,1.03,3.12-.19,1.21-.64,2.32-1.22,3.39-1.53,2.77-3.62,5.05-6.17,6.91-1.28.94-2.75,1.4-4.32,1.54-2.39.22-4.79.33-7.2.25-.39-.01-.79-.07-1.16-.2-.56-.19-.68-.91-.21-1.27.27-.21.6-.36.93-.47,1.2-.38,2.41-.73,3.62-1.08,2.03-.59,4.05-1.23,6-2.05.91-.39,1.81-.81,2.55-1.49.22-.21.43-.45.59-.71.34-.53.27-1.03-.16-1.49-.43-.46-.97-.76-1.53-1.04-.95-.48-1.92-.92-2.87-1.41-.55-.29-1.04-.67-1.41-1.19-.53-.75-.65-1.61-.58-2.51.08-1.01.38-1.97.76-2.89,1.28-3.1,3.18-5.79,5.46-8.23,1.45-1.55,2.95-3.04,4.63-4.36.49-.38.98-.77,1.57-.98.25-.09.51-.13.77,0,.38.19.52.59.38,1.05-.32,1.07-.64,2.13-.96,3.2Z"/>
    </g>
    <path class="cls-1" d="m108.58,261.48c-27.56,0-99.61,2.19-95.18-65.46.94-14.36,7.5-32.51,21.05-47.34,14.26-15.62,34.45-24.51,55.59-25.36.12,0,.23,0,.35-.01,2.49-.1,4.76-1.44,6.04-3.57,1.43-2.39,2.97-5.85,5.55-10.66,3.07-5.75,4.1-9.72,4.64-13.49.22-1.55-3.76-4.86-9.51-8.62-4.71-3.08-8.84-6.19-12.16-6.19-2.43.88-12.32,18.9-14.15,22.99-6.62.82-13.83,4.37-21.41,9.7-21.62,15.2-41.22,43.42-41.22,80.95,0,72.06,64,70.31,99.85,70.31l293.78.14v-3.15l-293.21-.22Z"/>
  </g>
  <g>
    <path class="cls-2" d="m55.96,234.8c-.15,0-.27-.04-.35-.13s-.12-.2-.12-.34v-13.55c0-.15.04-.27.12-.36.08-.09.2-.13.35-.13h8.57c.15,0,.27.04.35.13.08.09.12.21.12.36v.79c0,.15-.04.27-.12.35s-.2.12-.35.12h-7.06v4.54h6.6c.15,0,.27.05.35.14s.12.21.12.36v.77c0,.14-.04.25-.12.34-.08.09-.2.13-.35.13h-6.6v4.71h7.22c.15,0,.27.04.35.12s.12.2.12.35v.81c0,.14-.04.25-.12.34s-.2.13-.35.13h-8.74Z"/>
    <path class="cls-2" d="m71.61,235.01c-.76,0-1.42-.13-1.97-.4-.55-.27-1.01-.64-1.36-1.1-.35-.46-.62-.99-.79-1.59s-.27-1.22-.3-1.89c-.01-.22-.02-.43-.02-.62s0-.4.02-.62c.03-.65.13-1.27.3-1.87.17-.59.44-1.13.79-1.6.35-.47.81-.84,1.36-1.11.55-.27,1.21-.4,1.97-.4.82,0,1.49.15,2.03.44.54.29.98.65,1.33,1.08v-4.77c0-.14.04-.25.14-.34.09-.09.2-.13.34-.13h1c.14,0,.25.04.34.13.09.09.13.2.13.34v13.78c0,.14-.04.25-.13.34s-.2.13-.34.13h-.93c-.15,0-.27-.04-.35-.13s-.12-.2-.12-.34v-.87c-.35.44-.8.81-1.35,1.11-.55.3-1.25.45-2.08.45Zm.44-1.68c.69,0,1.25-.16,1.66-.48.42-.32.73-.72.93-1.21.21-.49.32-.99.33-1.5.01-.22.02-.49.02-.8s0-.58-.02-.8c-.01-.48-.13-.96-.34-1.43-.21-.47-.53-.86-.96-1.16-.42-.3-.96-.46-1.63-.46-.71,0-1.27.16-1.68.47-.42.31-.71.72-.89,1.22s-.28,1.05-.31,1.63c-.01.4-.01.8,0,1.2.03.58.13,1.12.31,1.63.18.51.48.91.89,1.22.42.31.98.47,1.68.47Z"/>
    <path class="cls-2" d="m84.04,235.01c-.89,0-1.64-.2-2.25-.59-.62-.39-1.08-.94-1.4-1.65-.32-.71-.48-1.51-.48-2.43v-5.85c0-.14.04-.25.13-.34s.2-.13.34-.13h1.04c.14,0,.25.04.34.13.09.09.13.2.13.34v5.75c0,2.06.9,3.09,2.7,3.09.86,0,1.55-.27,2.07-.82.52-.55.78-1.3.78-2.27v-5.75c0-.14.04-.25.14-.34.09-.09.2-.13.34-.13h1.02c.15,0,.27.04.35.13s.12.2.12.34v9.84c0,.14-.04.25-.12.34s-.2.13-.35.13h-.95c-.14,0-.25-.04-.34-.13s-.13-.2-.13-.34v-.91c-.37.48-.83.87-1.36,1.16-.53.29-1.23.44-2.11.44Z"/>
    <path class="cls-2" d="m96.86,235.01c-.98,0-1.83-.19-2.54-.57-.71-.38-1.26-.93-1.65-1.64s-.59-1.57-.62-2.56c-.01-.21-.02-.48-.02-.83s0-.62.02-.83c.03-1,.23-1.85.62-2.56s.94-1.26,1.65-1.64c.71-.38,1.56-.57,2.54-.57.8,0,1.49.11,2.06.33s1.05.5,1.42.85c.37.35.65.72.84,1.12.19.4.29.78.3,1.14.01.14-.03.25-.12.33-.1.08-.21.12-.35.12h-1c-.14,0-.24-.03-.31-.09-.07-.06-.14-.17-.21-.32-.25-.68-.59-1.15-1.02-1.43-.43-.28-.96-.42-1.6-.42-.83,0-1.5.26-2.02.77s-.8,1.33-.84,2.47c-.01.5-.01.98,0,1.45.04,1.15.32,1.97.84,2.48.52.51,1.19.76,2.02.76.64,0,1.17-.14,1.6-.42s.77-.75,1.02-1.43c.07-.15.14-.26.21-.32.07-.06.17-.09.31-.09h1c.14,0,.26.04.35.12.1.08.14.19.12.33-.01.29-.08.59-.19.89-.11.3-.29.61-.53.92-.24.31-.54.59-.9.83-.36.24-.79.44-1.3.58-.51.15-1.08.22-1.71.22Z"/>
    <path class="cls-2" d="m106.97,235.01c-.69,0-1.32-.14-1.89-.42-.57-.28-1.02-.65-1.37-1.12-.35-.47-.52-1-.52-1.6,0-.95.39-1.72,1.16-2.28.77-.57,1.78-.94,3.03-1.12l3.09-.44v-.6c0-.66-.19-1.18-.57-1.56s-1-.56-1.86-.56c-.62,0-1.12.12-1.5.37-.38.25-.65.57-.8.95-.08.21-.23.31-.44.31h-.93c-.15,0-.27-.04-.34-.13-.08-.09-.11-.2-.11-.32,0-.21.08-.46.24-.77.16-.3.4-.6.74-.89s.76-.54,1.28-.74c.52-.2,1.15-.3,1.9-.3.83,0,1.53.11,2.1.32.57.21,1.01.5,1.34.86.33.36.56.77.71,1.22.15.46.22.92.22,1.39v6.72c0,.14-.04.25-.13.34s-.2.13-.34.13h-.95c-.15,0-.27-.04-.35-.13s-.12-.2-.12-.34v-.89c-.18.25-.42.49-.73.74-.3.24-.68.44-1.14.6-.46.16-1.02.24-1.68.24Zm.44-1.56c.57,0,1.09-.12,1.56-.36.47-.24.84-.62,1.11-1.13s.41-1.16.41-1.93v-.58l-2.41.35c-.98.14-1.72.37-2.22.7s-.75.74-.75,1.23c0,.39.11.71.34.96.23.26.52.45.87.57s.72.19,1.09.19Z"/>
    <path class="cls-2" d="m119.52,234.8c-.77,0-1.4-.15-1.89-.45-.48-.3-.84-.72-1.06-1.27-.22-.55-.33-1.19-.33-1.94v-5.48h-1.62c-.14,0-.25-.04-.34-.14-.09-.09-.13-.2-.13-.34v-.71c0-.14.04-.25.13-.34s.2-.13.34-.13h1.62v-3.47c0-.14.04-.25.13-.34.09-.09.2-.13.34-.13h.97c.14,0,.25.04.34.13.09.09.13.2.13.34v3.47h2.57c.14,0,.25.04.34.13.09.09.13.2.13.34v.71c0,.14-.04.25-.13.34-.09.09-.21.14-.34.14h-2.57v5.33c0,.65.11,1.16.33,1.54s.62.56,1.18.56h1.27c.14,0,.25.04.34.13.09.09.13.2.13.34v.75c0,.14-.04.25-.13.34s-.2.13-.34.13h-1.43Z"/>
    <path class="cls-2" d="m123.73,222c-.14,0-.25-.04-.34-.13-.09-.09-.13-.2-.13-.34v-1.12c0-.14.04-.25.13-.34s.2-.14.34-.14h1.31c.14,0,.25.05.34.14s.13.2.13.34v1.12c0,.14-.04.25-.13.34-.09.09-.2.13-.34.13h-1.31Zm.17,12.8c-.14,0-.25-.04-.34-.13s-.13-.2-.13-.34v-9.84c0-.14.04-.25.13-.34s.2-.13.34-.13h1c.14,0,.25.04.33.13s.12.2.12.34v9.84c0,.14-.04.25-.12.34s-.19.13-.33.13h-1Z"/>
    <path class="cls-2" d="m132.86,235.01c-1.05,0-1.93-.2-2.63-.6-.71-.4-1.25-.96-1.62-1.67-.37-.71-.58-1.52-.62-2.44-.01-.24-.02-.54-.02-.9s0-.66.02-.88c.04-.93.25-1.74.63-2.45.38-.71.92-1.26,1.63-1.66.71-.4,1.58-.6,2.61-.6s1.91.2,2.62.6c.71.4,1.25.95,1.63,1.66.38.71.59,1.52.63,2.45.01.22.02.52.02.88s0,.67-.02.9c-.04.91-.25,1.73-.62,2.44-.37.71-.91,1.27-1.62,1.67-.71.4-1.58.6-2.64.6Zm0-1.6c.86,0,1.54-.27,2.05-.82s.79-1.35.83-2.4c.01-.21.02-.47.02-.79s0-.58-.02-.79c-.04-1.05-.32-1.85-.83-2.4s-1.2-.82-2.05-.82-1.55.27-2.06.82-.79,1.35-.82,2.4c-.01.21-.02.47-.02.79s0,.58.02.79c.03,1.05.3,1.85.82,2.4s1.21.82,2.06.82Z"/>
    <path class="cls-2" d="m140.83,234.8c-.14,0-.25-.04-.34-.13s-.13-.2-.13-.34v-9.84c0-.14.04-.25.13-.34s.2-.13.34-.13h.98c.14,0,.25.04.34.13.09.09.13.2.13.34v.91c.36-.47.81-.85,1.36-1.15.55-.3,1.25-.45,2.11-.45s1.66.2,2.29.59c.63.39,1.1.94,1.42,1.64.32.7.48,1.51.48,2.44v5.85c0,.14-.04.25-.12.34s-.19.13-.33.13h-1.04c-.14,0-.25-.04-.34-.13s-.13-.2-.13-.34v-5.75c0-.97-.24-1.73-.71-2.27-.47-.55-1.16-.82-2.08-.82-.86,0-1.55.27-2.07.82-.52.55-.78,1.3-.78,2.27v5.75c0,.14-.05.25-.13.34-.09.09-.21.13-.34.13h-1.04Z"/>
    <path class="cls-2" d="m155.94,235.01c-.69,0-1.32-.14-1.89-.42s-1.02-.65-1.37-1.12c-.35-.47-.52-1-.52-1.6,0-.95.39-1.72,1.16-2.28.78-.57,1.79-.94,3.03-1.12l3.09-.44v-.6c0-.66-.19-1.18-.57-1.56-.38-.37-1-.56-1.86-.56-.62,0-1.12.12-1.5.37s-.65.57-.8.95c-.08.21-.23.31-.44.31h-.93c-.15,0-.27-.04-.34-.13-.08-.09-.11-.2-.11-.32,0-.21.08-.46.24-.77.16-.3.4-.6.74-.89s.76-.54,1.28-.74c.52-.2,1.15-.3,1.9-.3.83,0,1.53.11,2.1.32.57.21,1.01.5,1.34.86.33.36.56.77.71,1.22.15.46.22.92.22,1.39v6.72c0,.14-.04.25-.13.34s-.2.13-.34.13h-.96c-.15,0-.27-.04-.35-.13s-.12-.2-.12-.34v-.89c-.18.25-.42.49-.73.74-.3.24-.68.44-1.14.6-.46.16-1.02.24-1.68.24Zm.44-1.56c.57,0,1.09-.12,1.56-.36.47-.24.84-.62,1.11-1.13.27-.51.4-1.16.4-1.93v-.58l-2.41.35c-.98.14-1.72.37-2.22.7s-.75.74-.75,1.23c0,.39.11.71.34.96.23.26.52.45.87.57.35.12.72.19,1.09.19Z"/>
    <path class="cls-2" d="m164.88,234.8c-.14,0-.25-.04-.34-.13-.09-.09-.14-.2-.14-.34v-13.78c0-.14.04-.25.14-.34.09-.09.2-.13.34-.13h.98c.15,0,.27.04.35.13.08.09.12.2.12.34v13.78c0,.14-.04.25-.12.34s-.2.13-.35.13h-.98Z"/>
    <path class="cls-2" d="m175.26,234.8c-.15,0-.27-.04-.35-.13s-.12-.2-.12-.34v-13.55c0-.15.04-.27.12-.36.08-.09.2-.13.35-.13h8.57c.15,0,.27.04.35.13.08.09.12.21.12.36v.79c0,.15-.04.27-.12.35s-.2.12-.35.12h-7.06v4.54h6.6c.15,0,.27.05.35.14s.12.21.12.36v.77c0,.14-.04.25-.12.34-.08.09-.2.13-.35.13h-6.6v4.71h7.22c.15,0,.27.04.35.12s.12.2.12.35v.81c0,.14-.04.25-.12.34s-.2.13-.35.13h-8.74Z"/>
    <path class="cls-2" d="m187.56,234.8c-.14,0-.25-.04-.34-.13s-.13-.2-.13-.34v-9.84c0-.14.04-.25.13-.34s.2-.13.34-.13h.98c.14,0,.25.04.34.13s.13.2.13.34v.91c.36-.47.81-.85,1.36-1.15.55-.3,1.25-.45,2.11-.45.9,0,1.66.2,2.29.59.63.39,1.1.94,1.42,1.64.32.7.48,1.51.48,2.44v5.85c0,.14-.04.25-.12.34s-.19.13-.33.13h-1.04c-.14,0-.25-.04-.34-.13s-.13-.2-.13-.34v-5.75c0-.97-.24-1.73-.71-2.27s-1.16-.82-2.08-.82c-.86,0-1.55.27-2.06.82s-.78,1.3-.78,2.27v5.75c0,.14-.04.25-.13.34s-.2.13-.34.13h-1.04Z"/>
    <path class="cls-2" d="m203.61,235.01c-.76,0-1.42-.13-1.97-.4-.55-.27-1.01-.64-1.36-1.1s-.62-.99-.79-1.59c-.17-.59-.27-1.22-.3-1.89-.01-.22-.02-.43-.02-.62s0-.4.02-.62c.03-.65.13-1.27.3-1.87.17-.59.44-1.13.79-1.6.35-.47.81-.84,1.36-1.11.55-.27,1.21-.4,1.97-.4.82,0,1.49.15,2.03.44.54.29.98.65,1.33,1.08v-4.77c0-.14.04-.25.13-.34.09-.09.2-.13.34-.13h1c.14,0,.25.04.34.13.09.09.13.2.13.34v13.78c0,.14-.04.25-.13.34s-.2.13-.34.13h-.93c-.15,0-.27-.04-.35-.13s-.12-.2-.12-.34v-.87c-.35.44-.8.81-1.35,1.11-.55.3-1.25.45-2.08.45Zm.44-1.68c.69,0,1.25-.16,1.66-.48.42-.32.73-.72.93-1.21.21-.49.32-.99.33-1.5.01-.22.02-.49.02-.8s0-.58-.02-.8c-.01-.48-.13-.96-.34-1.43-.21-.47-.53-.86-.95-1.16-.42-.3-.96-.46-1.63-.46-.71,0-1.27.16-1.68.47-.42.31-.71.72-.89,1.22s-.28,1.05-.31,1.63c-.01.4-.01.8,0,1.2.03.58.13,1.12.31,1.63.18.51.48.91.89,1.22.42.31.97.47,1.68.47Z"/>
    <path class="cls-2" d="m216.43,235.01c-1.05,0-1.93-.2-2.64-.6-.71-.4-1.25-.96-1.62-1.67-.37-.71-.58-1.52-.62-2.44-.01-.24-.02-.54-.02-.9s0-.66.02-.88c.04-.93.25-1.74.63-2.45.38-.71.92-1.26,1.63-1.66.71-.4,1.58-.6,2.62-.6s1.91.2,2.61.6c.71.4,1.25.95,1.63,1.66.38.71.59,1.52.63,2.45.01.22.02.52.02.88s0,.67-.02.9c-.04.91-.25,1.73-.62,2.44-.37.71-.91,1.27-1.62,1.67-.71.4-1.58.6-2.63.6Zm0-1.6c.86,0,1.54-.27,2.05-.82.51-.55.79-1.35.83-2.4.01-.21.02-.47.02-.79s0-.58-.02-.79c-.04-1.05-.32-1.85-.83-2.4-.51-.55-1.2-.82-2.05-.82s-1.55.27-2.06.82c-.52.55-.79,1.35-.82,2.4-.01.21-.02.47-.02.79s0,.58.02.79c.03,1.05.3,1.85.82,2.4.52.55,1.21.82,2.06.82Z"/>
    <path class="cls-2" d="m226.49,234.8c-.18,0-.32-.04-.42-.13-.1-.09-.18-.22-.25-.38l-2.95-9.63c-.03-.07-.04-.14-.04-.21,0-.12.04-.23.13-.31s.19-.12.3-.12h.91c.15,0,.27.04.35.12s.14.16.17.23l2.3,7.82,2.47-7.74c.03-.1.09-.19.18-.29.09-.1.22-.15.41-.15h.71c.18,0,.32.05.42.15.1.1.15.19.17.29l2.47,7.74,2.3-7.82c.01-.07.06-.15.15-.23s.2-.12.35-.12h.91c.12,0,.23.04.31.12s.12.19.12.31c0,.07-.01.14-.04.21l-2.95,9.63c-.04.17-.11.29-.22.38-.1.09-.25.13-.45.13h-.81c-.18,0-.33-.04-.45-.13s-.2-.22-.24-.38l-2.41-7.43-2.41,7.43c-.06.17-.14.29-.25.38-.11.09-.26.13-.46.13h-.81Z"/>
    <path class="cls-2" d="m240.75,234.8c-.14,0-.25-.04-.34-.13s-.13-.2-.13-.34v-9.84c0-.14.04-.25.13-.34s.2-.13.34-.13h.93c.14,0,.25.04.34.13.09.09.13.2.13.34v.73c.32-.43.72-.77,1.2-1.03s1.07-.38,1.74-.38c1.56-.01,2.67.62,3.32,1.91.32-.58.78-1.04,1.39-1.39.61-.35,1.3-.52,2.08-.52.72,0,1.37.17,1.96.5s1.05.83,1.39,1.5c.34.67.51,1.51.51,2.52v6c0,.14-.04.25-.13.34s-.2.13-.34.13h-.98c-.14,0-.25-.04-.34-.13s-.13-.2-.13-.34v-5.81c0-.77-.11-1.38-.33-1.83-.22-.44-.52-.75-.89-.93-.37-.18-.78-.27-1.22-.27-.36,0-.73.09-1.1.27-.37.18-.68.49-.92.93-.24.44-.36,1.05-.36,1.83v5.81c0,.14-.04.25-.13.34s-.2.13-.34.13h-.98c-.14,0-.25-.04-.34-.13s-.13-.2-.13-.34v-5.81c0-.77-.12-1.38-.35-1.83-.24-.44-.54-.75-.91-.93-.37-.18-.77-.27-1.18-.27-.36,0-.73.09-1.1.27-.37.18-.68.49-.92.93-.24.44-.36,1.04-.36,1.81v5.83c0,.14-.05.25-.13.34-.09.09-.21.13-.34.13h-1Z"/>
    <path class="cls-2" d="m263.02,235.01c-1.42,0-2.56-.44-3.4-1.32-.84-.88-1.31-2.08-1.39-3.6-.01-.18-.02-.41-.02-.7s0-.52.02-.7c.05-.98.28-1.84.68-2.58.4-.74.95-1.31,1.65-1.71.7-.4,1.52-.6,2.46-.6,1.05,0,1.93.22,2.65.66.71.44,1.25,1.07,1.63,1.89.37.82.56,1.77.56,2.86v.35c0,.15-.04.27-.13.35s-.2.12-.34.12h-7.18v.19c.03.57.15,1.1.37,1.59.22.49.54.89.95,1.19.42.3.91.46,1.49.46.5,0,.91-.08,1.25-.23s.6-.32.81-.51c.21-.19.35-.33.42-.43.12-.18.22-.29.29-.32.07-.03.18-.05.33-.05h1c.14,0,.25.04.34.11.09.08.13.18.11.32-.01.21-.12.46-.33.76-.21.3-.5.59-.89.88s-.86.53-1.41.72c-.55.19-1.19.28-1.91.28Zm-2.82-6.39h5.69v-.06c0-.62-.11-1.18-.34-1.66-.23-.48-.56-.87-.99-1.15-.43-.28-.94-.43-1.54-.43s-1.1.14-1.53.43c-.42.28-.74.67-.96,1.15-.22.48-.33,1.04-.33,1.66v.06Z"/>
    <path class="cls-2" d="m270.82,234.8c-.14,0-.25-.04-.34-.13s-.13-.2-.13-.34v-9.84c0-.14.04-.25.13-.34s.2-.13.34-.13h.98c.14,0,.25.04.34.13.09.09.13.2.13.34v.91c.36-.47.81-.85,1.36-1.15.55-.3,1.25-.45,2.11-.45s1.66.2,2.29.59c.63.39,1.1.94,1.42,1.64.32.7.48,1.51.48,2.44v5.85c0,.14-.04.25-.12.34s-.19.13-.33.13h-1.04c-.14,0-.25-.04-.34-.13s-.13-.2-.13-.34v-5.75c0-.97-.24-1.73-.71-2.27-.47-.55-1.16-.82-2.08-.82-.86,0-1.55.27-2.07.82-.52.55-.78,1.3-.78,2.27v5.75c0,.14-.05.25-.13.34-.09.09-.21.13-.34.13h-1.04Z"/>
    <path class="cls-2" d="m286.98,234.8c-.78,0-1.4-.15-1.89-.45-.48-.3-.84-.72-1.06-1.27-.22-.55-.33-1.19-.33-1.94v-5.48h-1.62c-.14,0-.25-.04-.34-.14-.09-.09-.13-.2-.13-.34v-.71c0-.14.04-.25.13-.34s.2-.13.34-.13h1.62v-3.47c0-.14.04-.25.14-.34.09-.09.2-.13.34-.13h.98c.14,0,.25.04.34.13.09.09.14.2.14.34v3.47h2.57c.14,0,.25.04.34.13s.13.2.13.34v.71c0,.14-.04.25-.13.34-.09.09-.2.14-.34.14h-2.57v5.33c0,.65.11,1.16.33,1.54.22.37.62.56,1.18.56h1.27c.14,0,.25.04.34.13.09.09.13.2.13.34v.75c0,.14-.04.25-.13.34-.09.09-.21.13-.34.13h-1.43Z"/>
    <path class="cls-2" d="m306.53,239.59c-1,0-1.87-.13-2.6-.4-.74-.27-1.35-.64-1.84-1.12-.48-.48-.84-1.03-1.08-1.67s-.35-1.31-.35-2.03c0-.59.1-1.23.31-1.9.21-.67.55-1.36,1.02-2.06.08-.14.18-.22.29-.24.11-.02.22,0,.33.05l.69.31c.14.06.22.14.24.25.02.11-.02.25-.11.42-.35.54-.6,1.04-.76,1.49-.16.46-.24.95-.24,1.49,0,.65.15,1.24.44,1.76.29.53.75.94,1.37,1.25.62.3,1.42.46,2.41.46h1.78c1,0,1.81-.13,2.43-.39.62-.26.93-.69.93-1.27,0-.37-.11-.67-.33-.88-.22-.21-.53-.32-.91-.32h-1.04c-.29,0-.44-.15-.44-.46v-1.02c0-.3.15-.46.44-.46h4.13c.21,0,.31.1.31.31v1.12c0,.37-.2.56-.6.56h-.79l-1.16-1.1c.66.28,1.16.59,1.47.95.32.36.48.79.48,1.31,0,.44-.09.88-.27,1.3s-.46.81-.85,1.15c-.39.35-.9.62-1.53.83-.63.21-1.41.31-2.33.31h-1.83Zm-.08,3.3c-.06.07-.13.1-.23.09-.1,0-.19-.05-.27-.11l-.77-.75c-.05-.07-.08-.16-.08-.26s.03-.18.08-.24l.77-.77c.08-.08.17-.12.26-.12s.17.04.24.12l.77.77c.07.06.11.13.11.24,0,.1-.02.2-.09.28l-.79.75Zm2.86,0c-.07.07-.15.1-.24.09-.09,0-.18-.05-.26-.11l-.79-.75c-.05-.07-.09-.16-.09-.26,0-.1.02-.18.09-.24l.79-.77c.08-.08.17-.12.25-.12s.16.04.23.12l.77.77c.07.06.11.13.11.24,0,.1-.02.2-.09.28l-.77.75Z"/>
    <path class="cls-2" d="m320.37,234.99c-.32,0-.62-.03-.9-.08-.28-.06-.58-.15-.9-.27s-.68-.3-1.09-.53c-.41-.23-.91-.52-1.5-.86-.26.47-.54.82-.84,1.05-.3.23-.6.38-.9.45-.3.07-.61.1-.91.1-.21,0-.31-.1-.31-.31v-1.06c0-.42.21-.62.62-.62.23,0,.44-.04.61-.12.17-.08.36-.26.55-.52.19-.26.43-.66.71-1.18.5-.95.98-1.68,1.45-2.18.47-.5.93-.84,1.38-1.03.45-.19.9-.28,1.36-.28.51,0,.99.1,1.43.29.44.19.85.52,1.22.98.37.46.72,1.09,1.04,1.89.24.57.46,1.01.67,1.33.21.32.46.54.73.65.27.12.61.18,1.01.18.21,0,.31.1.31.31v1.06c0,.42-.21.62-.62.62-.54,0-1.01-.11-1.42-.33-.41-.22-.78-.59-1.11-1.12-.22.55-.56.96-1.03,1.21-.46.26-.98.38-1.55.38Zm.06-1.85c.36,0,.67-.09.94-.28.27-.19.41-.54.43-1.07.01-.43-.08-.84-.29-1.22-.21-.39-.48-.71-.81-.95s-.68-.37-1.06-.37c-.28,0-.55.06-.81.19s-.55.36-.85.71-.67.86-1.1,1.56c.73.4,1.3.71,1.71.91s.74.35,1.01.43c.26.08.54.11.83.11Z"/>
    <path class="cls-2" d="m325.48,234.84c-.21,0-.31-.11-.31-.33v-1.04c0-.42.21-.62.62-.62.86,0,1.46-.17,1.79-.5s.51-.93.51-1.81v-2.05c0-.3.15-.46.46-.46h.83c.3,0,.46.15.46.46v2.05c0,.59.09,1.06.26,1.4.17.34.46.57.85.71.39.13.93.2,1.61.2.21,0,.31.1.31.31v1.06c0,.42-.21.62-.62.62-.76,0-1.45-.13-2.08-.38-.62-.26-1.11-.74-1.45-1.44-.3.69-.75,1.17-1.34,1.43s-1.22.39-1.9.39Zm2.28,3.78c-.07.06-.15.08-.25.07-.1,0-.18-.04-.25-.09l-.77-.77c-.07-.07-.1-.15-.1-.25s.03-.18.1-.25l.77-.77c.07-.07.15-.1.24-.1s.18.03.26.1l.75.77c.08.07.13.15.14.25,0,.1-.03.19-.11.27l-.77.77Zm2.84,0c-.06.06-.13.08-.23.07-.1,0-.18-.04-.25-.09l-.79-.77c-.07-.07-.1-.15-.1-.25s.03-.18.1-.25l.79-.77c.07-.07.15-.1.24-.1s.16.03.22.1l.77.77c.08.07.13.15.13.25,0,.1-.03.19-.11.27l-.77.77Z"/>
    <path class="cls-2" d="m332.24,234.84c-.21,0-.31-.11-.31-.33v-1.04c0-.42.21-.62.62-.62.8,0,1.36-.17,1.67-.5s.47-.95.47-1.87v-10.79c0-.3.15-.46.44-.46h.81c.3,0,.46.15.46.46v10.79c0,.64.08,1.12.24,1.46.16.34.42.57.79.71.37.13.87.2,1.5.2.21,0,.31.1.31.31v1.06c0,.42-.21.62-.62.62-.62,0-1.22-.13-1.79-.38s-1.04-.74-1.4-1.44c-.32.72-.76,1.2-1.32,1.45-.56.25-1.18.37-1.86.37Z"/>
    <path class="cls-2" d="m338.59,234.84c-.08,0-.15-.02-.21-.07-.05-.05-.08-.16-.08-.32v-1.12c0-.19.06-.32.17-.38.11-.06.26-.09.44-.09.8-.01,1.47-.04,1.99-.08.53-.04.98-.11,1.37-.2.39-.09.76-.2,1.12-.32l-2.51-2.12c-.19-.18-.32-.35-.37-.5-.06-.15-.08-.34-.08-.56v-.64c0-.28.05-.48.17-.61.11-.13.26-.25.46-.34.61-.33,1.27-.57,1.97-.71.71-.14,1.4-.21,2.1-.21,1.42,0,2.49.23,3.2.7.71.46,1.06,1.05,1.06,1.77,0,.43-.11.83-.33,1.19-.22.37-.54.72-.94,1.05s-.88.69-1.4,1.06c.37.19.79.33,1.25.4.46.08.89.11,1.31.11h1.93c.21,0,.31.1.31.31v1.06c0,.42-.21.62-.62.62h-.77c-.71,0-1.31-.02-1.82-.06-.51-.04-.95-.11-1.33-.22-.38-.1-.73-.24-1.06-.4s-.67-.37-1.03-.62c-.37.21-.74.39-1.09.56-.35.17-.75.3-1.18.42-.44.11-.97.19-1.62.25s-1.44.08-2.38.08Zm6.54-3.11c.72-.43,1.32-.84,1.79-1.23.48-.39.72-.75.72-1.07,0-.21-.09-.39-.26-.56s-.45-.3-.83-.4c-.38-.1-.88-.16-1.5-.16-.48,0-.99.05-1.51.16-.53.1-1.07.28-1.64.53l3.24,2.74Z"/>
    <path class="cls-2" d="m350.9,234.84c-.12,0-.21-.04-.27-.12-.05-.08-.08-.17-.08-.27v-1.14c0-.19.06-.32.17-.37.11-.06.26-.08.46-.08h.25c.68,0,1.16-.18,1.44-.54.28-.36.42-.9.42-1.62,0-.25,0-.48-.03-.69-.02-.21-.07-.45-.13-.7l-.35-1.58c-.04-.15-.03-.27.04-.35s.18-.15.33-.19l.75-.17c.32-.07.51.06.58.37l.37,1.83c.07.28.12.59.16.95s.05.63.05.81c0,1.16-.27,2.1-.82,2.8-.55.71-1.36,1.06-2.44,1.06h-.89Zm1.14-9.59c-.07.07-.15.1-.25.1s-.19-.04-.27-.12l-.75-.77c-.07-.08-.1-.17-.1-.26s.03-.18.1-.26l.75-.77c.08-.08.17-.12.27-.12s.18.04.25.12l.77.77c.08.07.13.16.14.26,0,.1-.03.2-.11.28l-.79.77Zm3.09,0c-.07.08-.15.12-.25.1-.1-.01-.19-.06-.27-.12l-.79-.77c-.07-.07-.1-.16-.1-.26s.04-.19.1-.26l.79-.77c.08-.08.17-.12.25-.12s.17.04.25.12l.77.77c.08.07.12.16.12.26s-.04.2-.12.28l-.75.77Z"/>
    <path class="cls-2" d="m368.41,234.84c-.89,0-1.67-.09-2.34-.27s-1.25-.45-1.72-.8c-.47-.35-.83-.78-1.07-1.3-.24-.51-.36-1.09-.36-1.74,0-.43.06-.89.19-1.38.12-.49.3-1,.54-1.53.08-.19.18-.33.28-.4.1-.08.23-.08.38-.01l.71.25c.11.04.21.09.29.15s.09.17.02.33c-.4.89-.6,1.63-.6,2.24,0,.86.34,1.48,1.03,1.88.68.39,1.66.59,2.92.59h4.34c.71,0,1.36-.02,1.97-.07.61-.05,1.09-.11,1.43-.2-.39-.3-.75-.72-1.08-1.25s-.5-1.13-.52-1.83c0-.73.17-1.37.51-1.92s.79-.97,1.36-1.27c.57-.3,1.18-.45,1.85-.45s1.24.15,1.76.46c.53.3.94.72,1.26,1.24.31.53.47,1.13.47,1.81,0,.61-.15,1.17-.44,1.69-.29.52-.76,1.02-1.41,1.5.39.08.77.14,1.14.18.37.03.79.06,1.27.07.47.01,1.04.02,1.72.02.1,0,.18.03.24.09.06.06.09.14.09.24v1c0,.44-.22.66-.66.66-.72,0-1.36-.02-1.91-.05-.55-.03-1.06-.09-1.5-.16-.45-.07-.87-.16-1.26-.28-.39-.12-.77-.27-1.14-.47-.42.18-.81.33-1.17.46s-.74.23-1.13.3c-.39.08-.83.13-1.32.16-.49.03-1.08.04-1.77.04h-4.34Zm9.94-2.8c.68-.33,1.18-.72,1.5-1.17.33-.45.49-.89.49-1.32,0-.57-.17-1.02-.51-1.37-.34-.35-.81-.52-1.42-.52-.51,0-.96.16-1.35.49-.39.33-.58.76-.58,1.32s.15,1.03.46,1.43c.3.4.77.78,1.41,1.14Zm.42-8.45c-.07.07-.15.1-.25.09-.1,0-.19-.04-.27-.11l-.79-.79c-.07-.08-.1-.17-.1-.27s.03-.18.1-.25l.79-.79c.08-.07.17-.11.26-.11.09,0,.17.03.24.11l.79.79c.19.19.2.37.02.54l-.79.79Z"/>
    <path class="cls-2" d="m384.18,234.84c-.19,0-.33-.04-.39-.11-.07-.08-.1-.16-.09-.26,0-.1,0-.18,0-.25v-.85c0-.22.03-.36.08-.43.06-.06.19-.09.39-.09h4.63c.77,0,1.38-.12,1.82-.37s.73-.67.89-1.28c.16-.6.2-1.43.13-2.48l.39.44c-.32.44-.75.77-1.3.98-.55.21-1.1.31-1.65.31-.68,0-1.27-.13-1.77-.4-.5-.27-.89-.65-1.15-1.14-.26-.49-.39-1.06-.39-1.71.01-.69.19-1.31.52-1.85s.77-.96,1.31-1.27c.54-.3,1.11-.46,1.72-.46.84,0,1.55.22,2.13.65.57.44,1.01,1.04,1.32,1.82s.46,1.67.46,2.68c0,.9-.07,1.72-.2,2.47-.13.75-.37,1.39-.72,1.93-.35.54-.83.95-1.46,1.25-.63.29-1.44.44-2.42.44h-4.25Zm3.86-13.49c-.07.07-.15.1-.25.1s-.19-.04-.27-.12l-.75-.77c-.07-.08-.1-.17-.1-.26s.03-.18.1-.26l.75-.77c.08-.08.17-.12.27-.12s.18.04.25.12l.77.77c.08.07.13.16.13.26,0,.1-.03.2-.11.28l-.79.77Zm1.12,7.33c.42,0,.85-.07,1.3-.22.45-.15.84-.36,1.17-.63-.04-.37-.16-.75-.35-1.14-.19-.39-.47-.71-.82-.98s-.79-.39-1.32-.39c-.4,0-.74.09-1.03.27-.28.18-.5.41-.64.68-.15.28-.22.54-.22.79,0,.54.19.94.57,1.21.38.27.83.4,1.34.4Zm1.97-7.33c-.07.08-.15.12-.25.1-.1-.01-.19-.06-.27-.12l-.79-.77c-.07-.07-.1-.16-.1-.26s.03-.19.1-.26l.79-.77c.08-.08.17-.12.25-.12s.17.04.25.12l.77.77c.08.07.12.16.12.26s-.04.2-.12.28l-.75.77Z"/>
    <path class="cls-2" d="m395.2,239.9c-.18,0-.32-.04-.42-.12s-.15-.22-.15-.42v-.91c0-.17.05-.29.15-.36.1-.08.25-.11.46-.11h1.04c1.2,0,2.17-.21,2.91-.64.73-.43,1.26-1.09,1.59-1.98.32-.89.46-2.03.4-3.41l1.51.04c0,1.74-.22,3.21-.66,4.39-.44,1.18-1.14,2.07-2.11,2.66-.96.59-2.22.88-3.79.88h-.93Zm5.91-7.95c-.03-.89-.25-1.59-.66-2.12s-.96-.79-1.64-.79c-.47,0-.86.09-1.16.28-.3.19-.53.43-.67.72s-.22.59-.22.89c0,.5.18.89.54,1.17.36.28.82.43,1.37.43.61,0,1.16-.1,1.64-.29.48-.19.81-.41.97-.64l.21,1.64c-.28.35-.67.63-1.18.84-.51.21-1.1.31-1.76.3-.71-.01-1.3-.18-1.78-.49-.48-.31-.85-.71-1.1-1.2-.25-.49-.37-1.03-.37-1.61,0-.53.08-1.02.24-1.49.16-.47.4-.88.72-1.23.32-.35.7-.63,1.15-.83.45-.2.96-.3,1.53-.3.72,0,1.36.19,1.93.57s1.02.92,1.35,1.63.5,1.56.5,2.55l-1.58-.02Z"/>
  </g>
  <g>
    <path class="cls-2" d="m56.39,208.15c-.21,0-.38-.07-.52-.2-.13-.14-.2-.31-.2-.52v-20.38c0-.23.07-.41.2-.55.14-.14.31-.2.52-.2h1.56c.25,0,.44.06.56.19s.2.23.22.31l6.62,12.61,6.65-12.61c.04-.08.12-.19.23-.31s.3-.19.55-.19h1.53c.23,0,.41.07.55.2.13.14.2.32.2.55v20.38c0,.21-.07.38-.2.52-.14.14-.32.2-.55.2h-1.53c-.21,0-.38-.07-.52-.2-.13-.14-.2-.31-.2-.52v-15.35l-5.21,10.17c-.08.21-.21.37-.38.48-.17.11-.37.17-.62.17h-.97c-.27,0-.48-.06-.64-.17s-.29-.28-.39-.48l-5.21-10.17v15.35c0,.21-.07.38-.2.52-.14.14-.31.2-.51.2h-1.53Z"/>
    <path class="cls-2" d="m88.29,208.46c-1.77,0-3.29-.31-4.56-.92-1.27-.61-2.25-1.56-2.93-2.84-.69-1.28-1.07-2.89-1.15-4.82-.02-.92-.03-1.79-.03-2.64s0-1.72.03-2.64c.08-1.91.48-3.51,1.2-4.79.72-1.28,1.72-2.24,3-2.87,1.28-.63,2.76-.95,4.45-.95s3.2.32,4.48.95c1.28.63,2.28,1.59,3.01,2.87.73,1.28,1.12,2.88,1.19,4.79.04.92.06,1.79.06,2.64s-.02,1.72-.06,2.64c-.06,1.94-.44,3.54-1.14,4.82-.7,1.28-1.68,2.23-2.95,2.84-1.27.61-2.8.92-4.59.92Zm0-2.65c1.6,0,2.91-.48,3.92-1.44,1.01-.96,1.55-2.51,1.64-4.65.04-.94.06-1.77.06-2.51s-.02-1.56-.06-2.48c-.04-1.44-.31-2.6-.8-3.5-.49-.89-1.14-1.55-1.95-1.97s-1.75-.62-2.81-.62-1.93.21-2.75.62-1.46,1.07-1.95,1.97c-.49.9-.76,2.06-.83,3.5-.02.92-.03,1.74-.03,2.48s0,1.58.03,2.51c.08,2.14.63,3.69,1.65,4.65,1.02.96,2.31,1.44,3.87,1.44Z"/>
    <path class="cls-2" d="m106.61,208.15c-.21,0-.38-.07-.51-.2-.14-.14-.2-.31-.2-.52v-18.35h-5.99c-.21,0-.38-.07-.51-.2-.14-.14-.2-.31-.2-.52v-1.31c0-.23.07-.41.2-.55.13-.14.31-.2.51-.2h15.04c.23,0,.41.07.55.2.14.14.2.32.2.55v1.31c0,.21-.07.38-.2.52-.13.14-.32.2-.55.2h-5.96v18.35c0,.21-.07.38-.2.52-.13.14-.32.2-.55.2h-1.62Z"/>
    <path class="cls-2" d="m119.9,208.15c-.23,0-.41-.07-.53-.2-.12-.14-.19-.31-.19-.52v-20.38c0-.23.06-.41.19-.55.12-.14.3-.2.53-.2h1.59c.23,0,.41.07.55.2.13.14.2.32.2.55v8.61h10.74v-8.61c0-.23.07-.41.2-.55.13-.14.31-.2.51-.2h1.59c.23,0,.41.07.55.2.14.14.2.32.2.55v20.38c0,.21-.07.38-.2.52s-.32.2-.55.2h-1.59c-.21,0-.38-.07-.51-.2-.14-.14-.2-.31-.2-.52v-8.96h-10.74v8.96c0,.21-.07.38-.2.52-.14.14-.32.2-.55.2h-1.59Z"/>
    <path class="cls-2" d="m142.16,208.15c-.23,0-.41-.07-.53-.2-.12-.14-.19-.31-.19-.52v-20.38c0-.23.06-.41.19-.55.12-.14.3-.2.53-.2h12.89c.23,0,.41.07.53.2.12.14.19.32.19.55v1.19c0,.23-.06.41-.19.53-.12.12-.3.19-.53.19h-10.61v6.83h9.92c.23,0,.41.07.53.2.12.14.19.32.19.55v1.15c0,.21-.06.38-.19.52-.12.14-.3.2-.53.2h-9.92v7.08h10.86c.23,0,.41.06.53.19.12.12.19.3.19.53v1.22c0,.21-.06.38-.19.52s-.3.2-.53.2h-13.14Z"/>
    <path class="cls-2" d="m161.07,208.15c-.23,0-.41-.07-.53-.2s-.19-.31-.19-.52v-20.38c0-.23.06-.41.19-.55.12-.14.3-.2.53-.2h7.62c2.35,0,4.21.55,5.59,1.65,1.37,1.1,2.06,2.74,2.06,4.9,0,1.6-.4,2.91-1.2,3.92-.8,1.01-1.89,1.71-3.26,2.11l4.81,8.3c.06.12.09.24.09.34,0,.17-.07.31-.2.44-.13.12-.29.19-.45.19h-1.5c-.35,0-.61-.09-.78-.28-.17-.19-.31-.37-.44-.56l-4.53-7.93h-5.46v8.05c0,.21-.07.38-.2.52s-.32.2-.55.2h-1.59Zm2.34-11.42h5.15c1.56,0,2.73-.33,3.5-.98s1.16-1.63,1.16-2.92-.38-2.24-1.14-2.9c-.76-.67-1.93-1-3.51-1h-5.15v7.8Z"/>
    <path class="cls-2" d="m187.82,208.46c-1.81,0-3.33-.28-4.56-.83-1.23-.55-2.17-1.27-2.82-2.15-.66-.88-1-1.83-1.05-2.82,0-.17.07-.32.2-.45.13-.14.3-.2.48-.2h1.59c.25,0,.44.06.56.19s.21.27.25.44c.1.5.36.99.76,1.48.41.49.98.89,1.72,1.22.74.32,1.69.48,2.86.48,1.79,0,3.11-.32,3.95-.95.84-.63,1.26-1.48,1.26-2.54,0-.73-.22-1.32-.67-1.76-.45-.45-1.13-.85-2.04-1.2-.92-.35-2.1-.74-3.56-1.15-1.52-.44-2.78-.92-3.78-1.44-1-.52-1.74-1.17-2.23-1.94-.49-.77-.73-1.75-.73-2.93,0-1.12.3-2.13.91-3.01s1.47-1.59,2.61-2.11c1.13-.52,2.51-.78,4.14-.78,1.29,0,2.42.17,3.39.52.97.34,1.77.8,2.42,1.37.64.57,1.13,1.19,1.47,1.84.33.66.51,1.3.53,1.92,0,.15-.05.29-.16.42-.1.14-.27.2-.5.2h-1.65c-.15,0-.3-.04-.45-.12-.16-.08-.28-.24-.36-.47-.12-.85-.6-1.57-1.44-2.15-.83-.58-1.92-.87-3.25-.87s-2.45.26-3.29.78c-.84.52-1.26,1.33-1.26,2.43,0,.71.2,1.29.59,1.76s1.02.88,1.87,1.23c.85.35,1.97.73,3.34,1.12,1.67.46,3.03.94,4.09,1.45,1.06.51,1.85,1.14,2.36,1.9.51.76.76,1.73.76,2.92,0,1.31-.34,2.43-1.03,3.35s-1.65,1.63-2.89,2.12c-1.24.49-2.7.73-4.38.73Z"/>
    <path class="cls-2" d="m200.39,192.89c-.21,0-.36-.07-.45-.2-.09-.13-.15-.3-.17-.48l-.53-5.49c-.02-.23.03-.41.14-.53s.28-.19.48-.19h2.03c.21,0,.37.06.5.19s.18.3.16.53l-.53,5.49c-.02.19-.08.35-.19.48-.1.14-.26.2-.47.2h-.97Z"/>
    <path class="cls-2" d="m215.37,208.15c-.23,0-.41-.07-.53-.2-.12-.14-.19-.31-.19-.52v-20.38c0-.23.06-.41.19-.55.12-.14.3-.2.53-.2h12.89c.23,0,.41.07.53.2.12.14.19.32.19.55v1.19c0,.23-.06.41-.19.53-.12.12-.3.19-.53.19h-10.61v6.83h9.92c.23,0,.41.07.53.2.12.14.19.32.19.55v1.15c0,.21-.06.38-.19.52-.12.14-.3.2-.53.2h-9.92v7.08h10.86c.23,0,.41.06.53.19.12.12.19.3.19.53v1.22c0,.21-.06.38-.19.52s-.3.2-.53.2h-13.14Z"/>
    <path class="cls-2" d="m234.29,208.15c-.23,0-.41-.07-.53-.2s-.19-.31-.19-.52v-20.38c0-.23.06-.41.19-.55.12-.14.3-.2.53-.2h1.44c.25,0,.44.06.56.17.12.11.2.2.22.27l10.36,15.92v-15.6c0-.23.06-.41.19-.55.12-.14.3-.2.53-.2h1.5c.23,0,.41.07.55.2.13.14.2.32.2.55v20.35c0,.21-.07.39-.2.53-.14.15-.31.22-.52.22h-1.5c-.23,0-.4-.06-.51-.19-.11-.12-.19-.21-.23-.25l-10.33-15.76v15.48c0,.21-.07.38-.2.52-.13.14-.32.2-.55.2h-1.5Z"/>
    <path class="cls-2" d="m255.94,208.15c-.23,0-.41-.07-.53-.2s-.19-.31-.19-.52v-20.38c0-.23.06-.41.19-.55.12-.14.3-.2.53-.2h7.08c2.14,0,3.87.32,5.18.97,1.31.65,2.27,1.6,2.87,2.86.6,1.26.92,2.8.94,4.63.02.94.03,1.76.03,2.47s-.01,1.52-.03,2.43c-.04,1.91-.36,3.5-.95,4.76-.59,1.26-1.53,2.2-2.81,2.81-1.28.61-2.97.92-5.07.92h-7.24Zm2.34-2.65h4.74c1.44,0,2.58-.2,3.43-.59.85-.4,1.47-1.03,1.86-1.9.38-.87.59-2.03.61-3.46.04-.62.06-1.17.06-1.64v-1.4c0-.47-.02-1-.06-1.61-.04-2.02-.52-3.51-1.44-4.48-.92-.97-2.46-1.45-4.62-1.45h-4.59v16.54Z"/>
    <path class="cls-2" d="m284.56,208.46c-1.77,0-3.29-.31-4.56-.92-1.27-.61-2.25-1.56-2.93-2.84-.69-1.28-1.07-2.89-1.15-4.82-.02-.92-.03-1.79-.03-2.64s0-1.72.03-2.64c.08-1.91.48-3.51,1.2-4.79.72-1.28,1.72-2.24,3-2.87,1.28-.63,2.76-.95,4.45-.95s3.2.32,4.48.95c1.28.63,2.28,1.59,3.01,2.87.73,1.28,1.12,2.88,1.19,4.79.04.92.06,1.79.06,2.64s-.02,1.72-.06,2.64c-.06,1.94-.44,3.54-1.14,4.82-.7,1.28-1.68,2.23-2.95,2.84-1.27.61-2.8.92-4.59.92Zm0-2.65c1.6,0,2.91-.48,3.92-1.44,1.01-.96,1.55-2.51,1.64-4.65.04-.94.06-1.77.06-2.51s-.02-1.56-.06-2.48c-.04-1.44-.31-2.6-.8-3.5-.49-.89-1.14-1.55-1.95-1.97s-1.75-.62-2.81-.62-1.93.21-2.75.62-1.46,1.07-1.95,1.97c-.49.9-.76,2.06-.83,3.5-.02.92-.03,1.74-.03,2.48s0,1.58.03,2.51c.08,2.14.63,3.69,1.65,4.65,1.02.96,2.31,1.44,3.87,1.44Z"/>
    <path class="cls-2" d="m301.26,208.15c-.27,0-.48-.07-.64-.22-.16-.15-.27-.35-.33-.62l-4.03-20.04c-.02-.08-.03-.16-.03-.22v-.12c0-.17.06-.31.19-.44s.27-.19.44-.19h1.62c.44,0,.69.18.75.53l3.18,16.1,3.37-11.05c.06-.19.17-.36.33-.52s.38-.23.67-.23h1.16c.31,0,.54.08.69.23s.24.33.28.52l3.4,11.05,3.15-16.1c.06-.35.32-.53.78-.53h1.62c.17,0,.31.06.44.19s.19.27.19.44c0,.02,0,.06-.02.12-.01.06-.02.14-.02.22l-4.03,20.04c-.06.27-.17.48-.33.62-.16.15-.37.22-.64.22h-1.22c-.29,0-.52-.07-.69-.22-.17-.15-.28-.33-.34-.56l-3.87-11.89-3.84,11.89c-.08.23-.2.42-.36.56s-.38.22-.67.22h-1.22Z"/>
    <path class="cls-2" d="m323.29,208.15c-.21,0-.38-.07-.51-.2-.14-.14-.2-.31-.2-.52v-20.38c0-.23.07-.41.2-.55.13-.14.31-.2.51-.2h1.56c.25,0,.44.06.56.19s.2.23.22.31l6.62,12.61,6.65-12.61c.04-.08.12-.19.23-.31s.3-.19.55-.19h1.53c.23,0,.41.07.55.2.14.14.2.32.2.55v20.38c0,.21-.07.38-.2.52-.13.14-.32.2-.55.2h-1.53c-.21,0-.38-.07-.51-.2-.14-.14-.2-.31-.2-.52v-15.35l-5.21,10.17c-.08.21-.21.37-.37.48-.17.11-.38.17-.62.17h-.97c-.27,0-.48-.06-.64-.17-.16-.11-.29-.28-.39-.48l-5.21-10.17v15.35c0,.21-.07.38-.2.52-.13.14-.31.2-.51.2h-1.53Z"/>
    <path class="cls-2" d="m348.07,208.15c-.23,0-.41-.07-.53-.2-.12-.14-.19-.31-.19-.52v-20.38c0-.23.06-.41.19-.55.12-.14.3-.2.53-.2h12.89c.23,0,.41.07.53.2.12.14.19.32.19.55v1.19c0,.23-.06.41-.19.53-.12.12-.3.19-.53.19h-10.61v6.83h9.92c.23,0,.41.07.53.2.12.14.19.32.19.55v1.15c0,.21-.06.38-.19.52-.12.14-.3.2-.53.2h-9.92v7.08h10.86c.23,0,.41.06.53.19.12.12.19.3.19.53v1.22c0,.21-.06.38-.19.52s-.3.2-.53.2h-13.14Z"/>
    <path class="cls-2" d="m366.99,208.15c-.23,0-.41-.07-.53-.2-.12-.14-.19-.31-.19-.52v-20.38c0-.23.06-.41.19-.55.12-.14.3-.2.53-.2h1.44c.25,0,.44.06.56.17.12.11.2.2.22.27l10.36,15.92v-15.6c0-.23.06-.41.19-.55.12-.14.3-.2.53-.2h1.5c.23,0,.41.07.55.2.13.14.2.32.2.55v20.35c0,.21-.07.39-.2.53-.14.15-.31.22-.51.22h-1.5c-.23,0-.4-.06-.52-.19-.11-.12-.19-.21-.23-.25l-10.33-15.76v15.48c0,.21-.07.38-.2.52-.14.14-.32.2-.55.2h-1.5Z"/>
    <path class="cls-2" d="m393.42,208.15c-.21,0-.38-.07-.51-.2-.14-.14-.2-.31-.2-.52v-18.35h-5.99c-.21,0-.38-.07-.51-.2-.14-.14-.2-.31-.2-.52v-1.31c0-.23.07-.41.2-.55.13-.14.31-.2.51-.2h15.04c.23,0,.41.07.55.2.13.14.2.32.2.55v1.31c0,.21-.07.38-.2.52-.14.14-.32.2-.55.2h-5.96v18.35c0,.21-.07.38-.2.52-.14.14-.32.2-.55.2h-1.62Z"/>
  </g>
</svg>